<svg id="Шар_1" data-name="Шар 1" xmlns="http://www.w3.org/2000/svg" viewBox="0 0 994.52 744.89"><defs><style>.cls-10,.cls-2{fill:#1c3e51}.cls-2{opacity:.3}.cls-17,.cls-8{fill:#fff}.cls-9{fill:#6d5551}.cls-12{fill:#f9b233}.cls-13{fill:#d38939}.cls-14{fill:#825723}.cls-15{fill:#d1e5e8}.cls-16{fill:#1d1d1b}.cls-17{opacity:.4}</style></defs><path d="M382.77 80.81C465 65.1 464.19 48.4 539.8 17.89c39.69-16 116.46-29.48 192.46 15.76 58.92 35.07 47.8 78.54 123 196.63 68.58 107.72 118.81 91.38 133.62 175.5 18.12 102.92-43.8 191-61.21 210.15-89.86 98.82-181 126.61-235 126.17-80.63-.66-124.45-35.63-222.32-24.08-204.13 24.08-256.83-7.95-315.33-86.94-42.95-58-180.17-35.69-147.82-123.62 38.69-105.06 133.86-78.82 140.37-166.72 5.56-74.95-56.11-105.9-28.95-166.17 18.85-41.83 66.93-62.7 87.32-70.43 60.32-22.88 93.17-7.35 176.83-23.33Z" style="fill:#95cec4"/><ellipse class="cls-2" cx="183.24" cy="481.12" rx="30.64" ry="8.21" transform="rotate(-1.55 183.868 482.352)"/><ellipse class="cls-2" cx="604.01" cy="611.19" rx="31.13" ry="9.86" transform="rotate(-2.43 603.57 610.931)"/><ellipse class="cls-2" cx="347.65" cy="648.27" rx="43.86" ry="11.79" transform="rotate(-2.43 347.353 647.951)"/><ellipse class="cls-2" cx="695.54" cy="642.2" rx="50.45" ry="16.12" transform="rotate(-4.69 696.12 642.71)"/><ellipse class="cls-2" cx="289.56" cy="546.76" rx="104.87" ry="39.8" transform="rotate(-1.87 289.853 547.452)"/><path d="M387 480.13a4.48 4.48 0 0 1 6.8 2.25c5.43 15.72 16.27 47.51 16.2 48.62-1.37 11.93-35.32 28.2-87 22.25-54.55-6.28-81-29.49-79.67-41.42.13-1.1 19.32-42.44 23.22-50.85.45-.95 1.21-.83 1.26.23.5 10.61 27.07 21.64 59.52 25.37 26.8 3.12 50.26.25 59.67-6.45Z" style="fill:#1d9ebc"/><rect x="380.46" y="486.06" width="17.32" height="54.56" rx="8.66" transform="rotate(-17.52 389.025 513.243)" style="opacity:.5;fill:#fff"/><path d="M348.86 526.15c16.95-1.91 31.2 7.4 45 19.49-15 6.74-39.71 11.23-70.84 7.65-54.55-6.29-81-29.5-79.66-41.43.05-.39 2.44-5.73 5.69-12.87 6.64 18.64 15.3 30.17 32.06 35 26.75 7.79 49.47-5.79 67.75-7.84Z" style="opacity:.51;fill:#1c3e51"/><ellipse cx="331.33" cy="461.09" rx="18.02" ry="59.46" transform="rotate(-88.13 331.36 461.093)" style="fill:#337099"/><path class="cls-8" d="M372.35 461.87a6.55 6.55 0 0 1-2.67-.55c-7-3.18-26.24-7.69-48-6.26-2.65.16-5-1.15-5.23-2.94s1.68-3.39 4.32-3.56c24.46-1.6 45.86 3.51 54.29 7.33 2.2 1 2.79 3 1.32 4.52a5.64 5.64 0 0 1-4.03 1.46Z" style="opacity:.36"/><path class="cls-9" d="M397.35 643c-.19 5.93-16.42 10.2-36.25 9.56s-35.75-6-35.56-11.9 26-20.47 45.84-19.82S397.55 637 397.35 643Z"/><path class="cls-10" d="M216.62 478.83c-.18 5.6-12.12 9.75-26.66 9.28s-26.18-5.4-26-11 19.65-17.13 34.19-16.65 18.66 12.77 18.47 18.37Z"/><path d="M203.59 463.8c-4.65-2-9.94 0-13.11 3.69s1.2.63 7.29 3.18c4.42 1.86 3.86 6.13 7.74 3.38s3.57-7.87-1.92-10.25Z" style="opacity:.31;fill:#fff"/><path class="cls-10" d="M756.05 633.43c.24 6.11-18.31 11.57-41.44 12.17s-42.07-3.86-42.32-10 10.75-22.79 33.88-23.39 49.63 15.1 49.88 21.22Z"/><path class="cls-9" d="M589.72 604.73c-.15 4.48 12.1 8.51 27.35 9s27.74-2.73 27.93-7.21-5.46-16.52-20.71-17-34.43 10.72-34.57 15.21Z"/><path class="cls-2" d="M836.08 485.66a132.06 132.06 0 0 1-42.86 11.15c-26.19 2.36-53.13 2.26-72.75-11.46-10.1-7.05-5-21.47-18.82-32.22-28.43-22-82.28-40.86-124.33-30.92-18.62 4.4-34.41 14-61.53 11.41-3.34-.32-21.46-2.21-40.34-4.24-16.45-1.77-23.77-2.61-32.18 1.46-7.79 3.76-18.32 12.61-16.89 22.09 1 6.38 8.4 10.87 12.7 13.55 5.6 3.5 7.72 2.88 12.42 6.36 5.87 4.33 7.83 9.19 10 12.42 7.05 10.39 22.1 12.32 33 13.71 33 4.22 40.15-14.06 62.07-8 18.26 5 15.78 18.72 41 27.58 8.18 2.88 21 7.4 35.94 4 15.76-3.55 15.87-11.83 34.35-16.72 14.84-3.92 19.75.11 30.23-5.59 2.75-1.49 5.91-3.59 14.58-.93 21.66 6.64 47 6.89 70.13 4.33 20.37-2.25 39.49-8.15 55-16.66 1.25-.68-.36-1.98-1.72-1.32ZM373.25 139.85c-2.72-3.72-8-4.44-10.55-4a10.46 10.46 0 0 0-6.45 3.7c-1.81 2.28-2.33 5.29-2.57 8.18-.73 9.13 1 21.15 4.81 31.52A60.46 60.46 0 0 0 363 189a2.82 2.82 0 0 0 5.21-.88c.67-3.35 2.29-7 7.11-10.37 3.7-2.55 8.25-3.53 12.63-4.55s8.81-1.91 12.94-3.68a26.92 26.92 0 0 0 2.74-1.37 13.49 13.49 0 0 0 3.94-3.42 11.3 11.3 0 0 0-.3-13.38c-3-3.77-8.82-8-16.42-6-3.8 1.03-10.42 4.3-17.6-5.5Z"/><path class="cls-12" d="M586.56 439.56c-22.11-13.51-44.85-11.13-59.71 10.84-18.59 27.48-33.94 41-44.29 31.86-9.6-8.47 3-17.61 14.52-40 22.68-44.18 22.61-141.61-16.69-171.91-17.05-13.13-47.56-13.51-59.1 12.86-27 61.76-60.52 74.48-70.55 83.28 2.84-4.85-5.86-12-12.51-13.38-5.6-1.17-11.23 1.65-12.66 6.12C320.45 320.8 337.3 263 358 230.51c0 0 4.19-50.23 50.95-65.1 52.09-16.55 78.17 55.63 93.26 73.89C526.39 268.52 612.5 293 646.88 309c22.4 10.45 43.76 23.95 60.16 42.44s27.52 42.39 27.48 67.1-12.34 49.87-33.72 62.26c-13.41 7.78-25.64 9.15-37.61 5.93l-.12.46c-20.27 35-43.21 25-49.72 23.08s-12.23-8.3-10.91-15 9-10.76 10.89-17.44c1.77-6.41-.67-15.58-6.05-22.08-4.28-5.08-11.03-10.27-20.72-16.19Z"/><path class="cls-13" d="M449.63 218.8a60 60 0 0 1-13.57 2.29 3.61 3.61 0 0 1-2.85-6.13c3-3.13 5.74-7.49 5.76-15 0-5.74-7.1-30.48-6.57-36.2.77-8.35 82.99 34.79 17.23 55.04Z"/><path class="cls-14" d="M371 134.5c-2.73-3.73-8-4.44-10.56-4a10.49 10.49 0 0 0-6.45 3.7c-1.8 2.27-2.33 5.29-2.56 8.18-.74 9.13 1 21.14 4.8 31.52a60.46 60.46 0 0 0 4.55 9.76 2.83 2.83 0 0 0 5.22-.88c.66-3.35 2.28-7 7.11-10.37 3.69-2.56 8.25-3.54 12.62-4.56s8.82-1.9 12.95-3.67a24.93 24.93 0 0 0 2.73-1.38 13.49 13.49 0 0 0 3.95-3.41A11.32 11.32 0 0 0 405 146c-3-3.76-8.82-8-16.42-6-3.81 1-10.44 4.3-17.58-5.5Z"/><path class="cls-8" d="M398.52 224c-2.15 6.47-5.9 12.79-6.24 19.81a11.57 11.57 0 0 0 .76 5.51 6.74 6.74 0 0 0 6.1 3.64 12.49 12.49 0 0 0 6.95-2.58c5.58-3.91 9.36-10.25 12.47-16.66a35.3 35.3 0 0 0 3.38-9.34 14.71 14.71 0 0 0-1.35-9.58c-3.65-6.52-16.75-6.86-22.07 9.2ZM371.13 221.56c-3.55 5.08-6.22 11.12-11 15.33a11.69 11.69 0 0 1-4.27 2.64 5.14 5.14 0 0 1-5.51-1.91 9.81 9.81 0 0 1-1.53-6c.08-5.86 2.75-11.93 5.78-17.59a36.13 36.13 0 0 1 5-7.52A14.6 14.6 0 0 1 367 202c6.38-1.37 12.93 7 4.13 19.56Z"/><path class="cls-15" d="M407.23 251.62c-.85.65-6.12-.31-.74-5.53a52.39 52.39 0 0 0 5.58-6.15c2.58-3.69 6.55-10.87 5.78-19.56-.59-6.76 2.83-5.94 3.66-3.47s2.11 6.69-1.44 16.69c-2.52 7.11-8.61 14.77-12.84 18.02ZM372.26 223.61c-2.9 6-5.36 9.75-10.17 14-1.3 1.13-2.44-2.11 0-5.18 4.67-5.88 8.32-11.63 9.76-22.59.5-3.79 3.71-3.7 3.54.31a36.31 36.31 0 0 1-3.13 13.46Z"/><path class="cls-13" d="M714.5 463.35a88 88 0 0 0 10.6-8 65.41 65.41 0 0 1-24.3 25.45c-13.41 7.78-25.64 9.15-37.61 5.93l-.12.45c-17.7 30.62-37.44 26.81-46.49 24.09 12-.37 18.6-4.13 22.55-7.91C650 493 647.5 475.81 658 472.52c5.22-1.64 8.24 1.89 15.74 3.55 15.57 3.46 29.88-5.73 40.76-12.72ZM622.71 439c3.48 10.12-1.92 30.56-10.34 41.31 2.22-12.88-1.16-19.74-5.09-24.5-4.24-5.13-11-10.32-20.72-16.24-22.11-13.51-44.85-11.14-59.71 10.83-18.59 27.49-33.94 41-44.29 31.87a10.12 10.12 0 0 1-2.88-3.85 38 38 0 0 0 17-3.2c15.26-6.94 15.62-20.65 32.41-36 4-3.65 17.75-15.94 37.44-19.35 17.69-3.09 49.47-.61 56.18 19.13ZM491.85 282.48a56.1 56.1 0 0 0-11.46-12.14c-17-13.13-47.56-13.52-59.1 12.85-27 61.77-60.51 74.48-70.55 83.29 2.84-4.86-5.86-12-12.5-13.37-5.61-1.18-11.24 1.63-12.67 6.12-1.5-11.23-1.12-24.09.68-37.49 6.55 7.41 14.52 12 22.88 12.63 12.75.9 23.35-7.79 29.43-12.78 5.09-4.16 8.66-8.36 25.08-34.84 13.88-22.36 15.42-26 21.83-31 3.85-3 16.13-12.57 30.87-10.8 16.24 1.98 30.36 17.05 35.51 37.53Z"/><path class="cls-14" d="M335.75 372.68c-8-1.66-10.17-6.42-10.7-15.76-.41-7.14 7.6-12.18 15.57-10.52s18.41 10.22 15 16c-3.62 6.22-11.9 11.94-19.87 10.28Z"/><circle class="cls-16" cx="400.81" cy="245.72" r="8.72"/><circle class="cls-16" cx="356.43" cy="233.08" r="7.65"/><path class="cls-14" d="M866 450.81a1.34 1.34 0 0 1 1.68 2.08 117.12 117.12 0 0 1-124.73 19.28 13.08 13.08 0 0 1-6-18.8 2.39 2.39 0 0 1 .13-.21 6.86 6.86 0 0 1 10.3-2.26 102.26 102.26 0 0 0 75.51 18.2A100.28 100.28 0 0 0 866 450.81ZM479.48 160.42c5.31-.95 10.36 2.7 12.14 5.13a12.29 12.29 0 0 1 2.48 8.33c-.31 3.37-2.3 6.34-4.42 9-6.74 8.31-17.89 17.07-29.45 22.78a70.34 70.34 0 0 1-11.71 4.59 3.29 3.29 0 0 1-3.7-4.94c2.13-3.38 3.72-7.78 2.33-14.5-1.06-5.13-4.12-9.63-7-14s-5.92-8.71-8-13.53a29.38 29.38 0 0 1-1.2-3.37 15.8 15.8 0 0 1-.59-6.07 13.22 13.22 0 0 1 11-11.07c5.55-.79 13.89.36 18.71 8.16 2.48 3.9 5.46 12 19.41 9.49Z"/><path class="cls-12" d="M438 445.77c2-10.08 15-13.14 31.53-26.15a112.14 112.14 0 0 0 17.4-16.89c13.1-16.15 16-30.72 17.44-30.27s-1.14 18.5-8.72 37.74c-8.58 21.76-18 31.52-21.4 34.83-4.65 4.52-15.29 14.61-26.31 13.05-1.7-.24-6.67-.94-9-4.73-1.87-3-1.18-6.46-.94-7.58Z"/><path class="cls-10" d="M330.75 479.09c15.3.5 29.3-.8 39.93-3.33-6.13-5.29-21.64-9.74-40-10.92-20.32-1.3-37.66 1.82-42.92 7.2 10.68 3.83 25.96 6.5 42.99 7.05Z"/><ellipse class="cls-17" cx="629.43" cy="597.74" rx="4.74" ry="7.7" transform="rotate(-73.04 629.429 597.738)"/><ellipse cx="372.99" cy="628.96" rx="4.78" ry="11.12" transform="rotate(-85.02 373.006 628.96)" style="fill:#fff;opacity:.3"/><path class="cls-17" d="M703.56 623.93a30 30 0 0 0-8.77 6.23c-4 3.92-10.68 4-12.52.2-2.26-4.7 2-9 7.06-11.51 6.23-3.15 11.48-2.8 15.47-1.36 2.93 1.07 2.2 4.94-1.24 6.44Z"/></svg>