<svg xmlns="http://www.w3.org/2000/svg" xmlns:xlink="http://www.w3.org/1999/xlink" viewBox="0 0 2081.72 2081.72"><defs><style>.cls-1{isolation:isolate;}.cls-2{fill:url(#Градієнт_без_назви_20);}.cls-3{mix-blend-mode:multiply;fill:url(#Градієнт_без_назви_11);}.cls-4,.cls-5{fill:#fff;}.cls-4{opacity:0.7;}</style><linearGradient id="Градієнт_без_назви_20" x1="-173.78" y1="-12.4" x2="2314.89" y2="2145.62" gradientUnits="userSpaceOnUse"><stop offset="0.01" stop-color="#ffd34a"/><stop offset="0.2" stop-color="#ffb73a"/><stop offset="0.54" stop-color="#ff7b16"/></linearGradient><linearGradient id="Градієнт_без_назви_11" x1="-181.74" y1="-153.9" x2="2040.77" y2="2099.36" gradientUnits="userSpaceOnUse"><stop offset="0.05" stop-color="#823600" stop-opacity="0.8"/><stop offset="0.19" stop-color="#823600" stop-opacity="0.76"/><stop offset="0.35" stop-color="#823600" stop-opacity="0.66"/><stop offset="0.52" stop-color="#823600" stop-opacity="0.48"/><stop offset="0.7" stop-color="#823600" stop-opacity="0.23"/><stop offset="0.84" stop-color="#823600" stop-opacity="0"/></linearGradient></defs><g class="cls-1"><g id="Шар_1" data-name="Шар 1"><rect class="cls-2" width="2081.72" height="2081.72"/><path class="cls-3" d="M1599.24,473.25c-37.68-40.6-104.65-40.74-142.59-2.34a100,100,0,0,0-29.74,80.16,4.26,4.26,0,0,0,.38,1.43,100.27,100.27,0,0,0,3.28,17.16c-53.55,26.87-122.66,81.8-168.09,84-64.45,3.15-87.07-13.51-129-75.17-14.44-21.22-45.34-36.89-80.32-45.29-2-1.54-38-7.24-27.39-10.44,9.26-1.11,18.63-.26,27.92.41a212.06,212.06,0,0,1,41.26,8,174.66,174.66,0,0,1,20,7.35,142.77,142.77,0,0,1,19.2,10.12c5.42,3.39,16.27,9.57,17.29,9.61,24.33.79,63.7-31.64,82.86-58.51,5.23-7.74,11.05-16.15,11.19-25.74-1.54-32.09-36-21.3-38.78-71.11S1145.12,324,1145.12,324c0-.59,0-1.21,0-1.82s0-1.17,0-1.77h0a99.46,99.46,0,0,1,9.92-40.94c8.43-17.06,21.07-29.27,24-36.22h0a7.19,7.19,0,0,0,.61-2.24c0-.07,0-.14,0-.2s0-.22,0-.32a2.46,2.46,0,0,0,0-.28,2.38,2.38,0,0,0,0-.26,1.68,1.68,0,0,0-.09-.32,1.46,1.46,0,0,0-.07-.19,2.83,2.83,0,0,0-.26-.48c-1.93-2.81-8.42-1.22-11.52-.75-91.84,14.1-109.91,38.71-140.21,63.36-25.35,20.61-60.65,36.88-90.24,75-31.5,40.63-42.78,76.61-59.67,117.05-5.92,14.16-52,41.43-61.37,55.33C801,571.56,805.81,585.26,778.68,601c-35,20.25-67.8,30.39-134,78.2-117.56,84.84-155,188.79-143,309.09,14.27,142.41,54.62,205.11,83.17,282.17,29.45,79.46,3.54,160.95-53.05,188.09-70.92,34-145.13,7.07-223.33-6.57-21.77-3.63-48.15-1.48-67,10.79l0,0c-7.39,4.86-13.73,13.26-11.63,22.53h0c1.1,5,3.46,8.77,6.92,12.84l0,0a65.58,65.58,0,0,0,10.68,9.58L839,2040.86,2039,2033.28l1.9-1161.73Z" transform="translate(40.86 40.86)"/><path class="cls-4" d="M1486.79,556.57c-47.73-15.28-159.86,94-224.31,97.11s-87.07-13.51-129-75.17c-14.44-21.22-45.34-36.89-80.32-45.29-57.89-13.27-16.78-11.24.53-10a212.06,212.06,0,0,1,41.26,8,174.66,174.66,0,0,1,20,7.35,142.77,142.77,0,0,1,19.2,10.12c5.42,3.39,16.27,9.57,17.29,9.61,33.42,1.09,95.2-60.49,94-84.25-1.54-32.09-36-21.3-38.78-71.11S1145.12,324,1145.12,324c.05-12.14,1.91-28.19,10-44.53,10.58-21.41,27.81-35.19,24.14-40.51-1.94-2.81-8.42-1.22-11.52-.75-91.84,14.1-109.91,38.71-140.21,63.36-25.35,20.61-60.65,36.88-90.24,75-31.5,40.63-42.78,76.61-59.67,117.05-5.92,14.16-52,41.43-61.37,55.33C801,571.56,805.81,585.26,778.68,601c-35,20.25-67.8,30.39-134,78.2-117.56,84.84-155,188.79-143,309.09,14.27,142.41,54.62,205.11,83.17,282.17,29.45,79.46,3.54,160.95-53.05,188.09-70.92,34-145.13,7.07-223.33-6.57s-173.56,62.51,124.62,113c56.09,9.49,154.36-4.29,225.85-83.16,74.8-82.53,32.48-155.28,44.83-180.47,10.7-21.83,29.68-2.15,70.56-19.15,60-24.94,68.74-35.37,93.77-49.78,43.41-25,42.12,16.67,75.36,27.42s117.62-42.84,167.76-97.82c31.37-34.41,52.53-75.62,10.82-81.79-46.34-6.84-46.38,8.67-77.9,45-35.89,41.42-63.83,74.55-62-5.08.64-28.41,5.44-56.41-20.49-147.22-25.15-88,86-77.66,152-150.18a209.18,209.18,0,0,0,39.65-63.15c41.76,1.36,88.28-3.22,106.9-6.17,43.4-6.88,101.18-39.95,140.12-64.37S1455,667.76,1498,641,1534.52,571.86,1486.79,556.57Z" transform="translate(40.86 40.86)"/><path class="cls-5" d="M1486.79,556.57c-47.73-15.28-159.86,94-224.31,97.11s-87.07-13.51-129-75.17c-14.44-21.22-45.34-36.89-80.32-45.29a3.25,3.25,0,0,0-1.18-.61c-30.72-6.46-31.1-8.92-26.21-9.83a57.54,57.54,0,0,0-17.39,3c-14.81,5.09-23,14.21-24.74,12.47-3-3,12.07-38,40-49,40.76-16,67.9,35.28,135.05,34.17,33.19-.54,56.7-13.56,70.28-16.7,10.26-12.63,16.91-24.78,16.52-32.72-1.54-32.09-36-21.3-38.78-71.11S1145.12,324,1145.12,324c0-1.16,0-2.36.07-3.59l-1-.08c-3.88-.41-17.93-1.88-20.63-9.57-1-2.79.05-6.17,2.15-12.82a79.39,79.39,0,0,1,6.55-16c2.82-4.95,7.84-11.84,25.31-24.57,5.65-4.12,12.84-9,21.51-14.15.75-1.77.88-3.21.13-4.29-1.94-2.81-8.42-1.22-11.52-.75-91.84,14.1-109.91,38.71-140.21,63.36-25.35,20.61-60.65,36.88-90.24,75-31.5,40.63-42.78,76.61-59.67,117.05-5.92,14.16-52,41.43-61.37,55.33C801,571.56,805.81,585.26,778.68,601c-35,20.25-67.8,30.39-134,78.2-117.56,84.84-155,188.79-143,309.09,14.27,142.41,54.62,205.11,83.17,282.17,29.45,79.46,3.54,160.95-53.05,188.09-70.92,34-145.13,7.07-223.33-6.57-71.37-12.45-157,49.91,55.29,99.25,24.49,5.36,77.7,21.78,148.73,12,90.84-12.53,170.37-73.48,185.32-147,32.69-160.83-44.8-162.78-12.47-190.55,16.27-14,32.19,2.71,87.21-4,62.41-7.57,69.75-56.12,107.6-47,35.34,8.5,41.73,30.93,74.72,41.16,57.18,17.75,103.18-39.48,125.61-32.86,6.66,2,10,.27,12.44-2,6.56-6.12,12.54-12.67,18.3-19,31.37-34.41,52.53-75.62,10.82-81.79-46.34-6.84-46.38,8.67-77.9,45-35.89,41.42-63.83,74.55-62-5.08.19-8.5.75-17,.75-27.09-1-6.66-.68-20.28-2.56-36.63-.69-5.12-1.55-10.64-2.63-16.6-4-19.31-9.66-64.69-26-81.68S916.6,934,893,931.36c-67.54-7.6-103.56,29.26-114.72,9-7.54-13.68,4.35-37.33,18.87-50.17,26.5-23.44,52-2.24,98-16.64C950.84,856.16,945.49,815,999.84,804c28.49-5.8,40.85,3.28,76.95-8.75,16.77-5.58,33.6-11,48-26.43,12.89-13.91,13.58-24.86,26.71-32.16,14.64-8.14,29.42-3.21,45.33-.7,36,5.68,99.31-7.06,126.6-22.24,104.6-58.18,59.24-2.55,189.86-84.85C1538.25,602.79,1527.77,569.7,1486.79,556.57Z" transform="translate(40.86 40.86)"/><path class="cls-4" d="M1547.93,603.76c-1.18,10.38-5.74,20.46-13.35,29.64a5.57,5.57,0,0,0,5.08,9,100.26,100.26,0,0,0,84.25-74.37C1606.66,584.07,1582,599.06,1547.93,603.76Z" transform="translate(40.86 40.86)"/><path class="cls-4" d="M1517.29,546.39c48.49-1.4,78-25,94.25-44.83q2.18-2.65,4.17-5.38a100.26,100.26,0,0,0-188.8,54.89,4.32,4.32,0,0,0,6.18,3.51c25-12,47.24-18.41,64.69-12.82,2.39.76,5.58,1.74,8.44,2.61A56.51,56.51,0,0,0,1517.29,546.39Z" transform="translate(40.86 40.86)"/><path class="cls-5" d="M1546.09,593a159.84,159.84,0,0,0,78.63-43.82c0-.27,0-.54.07-.8a100.68,100.68,0,0,0-3-32.81l-.33-1.21-.68.85c-15.91,19.37-44.23,42.23-90.22,45.15,8.61,8.59,13.92,18.85,15.33,30.21C1546,591.33,1546,592.14,1546.09,593Z" transform="translate(40.86 40.86)"/></g></g></svg>