<svg xmlns="http://www.w3.org/2000/svg" xmlns:xlink="http://www.w3.org/1999/xlink" viewBox="0 0 2080.1 2082.44"><defs><style>.cls-1{isolation:isolate;}.cls-2{fill:url(#Градієнт_без_назви_72);}.cls-3,.cls-4{mix-blend-mode:multiply;}.cls-3,.cls-7{opacity:0.5;}.cls-4{fill:url(#Градієнт_без_назви_99);}.cls-5,.cls-6{fill:#fff;}.cls-5{opacity:0.7;}.cls-7{fill:url(#Градієнт_тінь);}</style><linearGradient id="Градієнт_без_назви_72" x1="46" y1="465.8" x2="2422.75" y2="1838.81" gradientUnits="userSpaceOnUse"><stop offset="0.03" stop-color="#11c3c0"/><stop offset="0.29" stop-color="#0c9d9b"/><stop offset="0.6" stop-color="#067977"/><stop offset="0.84" stop-color="#036260"/><stop offset="1" stop-color="#025a58"/></linearGradient><linearGradient id="Градієнт_без_назви_99" x1="-49" y1="145.36" x2="2402.54" y2="2288.45" gradientUnits="userSpaceOnUse"><stop offset="0.33" stop-color="#002936" stop-opacity="0.8"/><stop offset="0.45" stop-color="#002d3c" stop-opacity="0.62"/><stop offset="0.66" stop-color="#00384a" stop-opacity="0.15"/><stop offset="0.71" stop-color="#003c4f" stop-opacity="0"/></linearGradient><linearGradient id="Градієнт_тінь" x1="486.86" y1="1066.3" x2="487.35" y2="1066.7" gradientUnits="userSpaceOnUse"><stop offset="0.25" stop-color="#002936" stop-opacity="0.8"/><stop offset="0.72" stop-color="#003c4f" stop-opacity="0"/></linearGradient></defs><g class="cls-1"><g id="Шар_1" data-name="Шар 1"><rect class="cls-2" width="2080.1" height="2080.1"/><g class="cls-3"><path class="cls-4" d="M1571.05,690q-3.08-2.88-6.29-5.66L1082.69,250.61c-7.59-8.74-17.19-10-27.5,6.26-11.63,18.31-20.69,34.87-30.24,52.75-14.17,26.52-27.88,55.77-40.77,54.54-13.85-1.32-12.3-21.9-17.94-76.19-1-9.27-6.44-47.86-7.56-66.31-.41-6.67-9.67-11.25-13.92.1-30.69,82-46.44,91.12-46.15,143.32a1.24,1.24,0,0,1-.32.84c-26.68,28.6-73.53,59.39-94.45,78.14-29.12,26.11-6,33.81-12.05,50-14.46,38.63-67.26,64.26-106.62,94.31-23.43,17.88-6.43,47.83,34.65,65.13,13.39,5.64,55.25,21.31,104.42,5.87,12.43-3.91,30.39-9.69,52.2-13.19,12.74-2,24.48-1.44,41.27,7.58a31.36,31.36,0,0,1,15.63,35.31c-7,27.15-23.25,58.49-32.07,82.33-16.54,44.69-22.24,75.35-23.82,99.81-.08,1.29-.14,2.56-.21,3.81-1.6,26.68,6.74,84.56-5,115.36-24.76,65-59.83,84.77-59.83,84.77-13,13.61-23.19,26.8-25.2,47.93-4.28,44.82-10.93,61.86-20,91.39L580.43,1047.29l-9.36-9.44A192.76,192.76,0,0,0,438.75,985.5c-106.84,0-193.45,86.61-193.45,193.45a193.12,193.12,0,0,0,76.3,153.94l794.87,715.71h920.82V1109.53Z" transform="translate(42.03 33.84)"/></g><path class="cls-5" d="M1440.82,1633.91c-2.2-51.71,23.35-173.29,47.42-205,31.31-41.29,71.24-190.7,80.34-264.94,4.15-33.82-11.5-67.86-17.77-100.8-3.6-18.91-6.73-55.46,6-69.87,33.58-37.87,68.87-92.19,79.26-155.24s-36-159.17-121-196.23c-77.53-33.79-127.13-29.88-167.55,21.44-25.74,32.67-27.33,116.82,10.78,90.91,18.86-12.82,44.76-64.3,100.86-45.24,31.25,10.61,56.29,45.49,70.57,80,8.73,21.12,7.55,61.5-3,90.42-16,44.1-44.08,38-58.33,19.55-46.86-60.76-141.48-65.73-179.3-189.07-11.87-38.74-107.48-122.2-184.06-264.76-4.35-8.09-7.82-16.63-5.24-25.45,11.93-40.72-2.71-43.43,1-60.29,4.32-19.68,1.93-56.45-3.26-83.74s-22.5-61.28-42.46-29.87c-11.63,18.31-20.69,34.86-30.24,52.75C1010.68,325,997,354.25,984.07,353c-13.85-1.32-13.09-21.82-17.94-76.19-.83-9.29-6.4-47.87-7.56-66.31-.42-6.67-9.67-11.26-13.92.1-30.69,82-46.44,91.12-46.15,143.32a1.2,1.2,0,0,1-.32.83c-26.68,28.6-73.53,59.4-94.45,78.15-29.12,26.11-6,33.81-12.05,50-14.46,38.63-67.26,64.27-106.62,94.32-23.43,17.88-6.42,47.83,34.65,65.13C733.1,648,775,663.65,824.13,648.21c12.43-3.91,30.39-9.69,52.2-13.19,12.74-2,24.49-1.44,41.27,7.58a31.34,31.34,0,0,1,15.63,35.31c-7,27.15-23.25,58.49-32.07,82.33-45.41,122.73-9.15,139.67-30,212.9-23.56,82.81-79.08,86.25-84.09,138.78-6,62.9-16.67,71.08-32.17,135.86-16.52,69.1,74.59,40.13,93.26-1.56,18.92-42.23-5-45.48.48-85.78,4.32-31.86,30.44-51.35,49.25-70.16,14.3-14.3,26.81-30.34,35-46.65a137.94,137.94,0,0,0,10-24.83l0-.06c.47-2.1,1.14-4.2,1.48-6.3l.63-3.3c.22-1.36.47-2.71.8-4.09a44.61,44.61,0,0,1,2.75-8.33,30.23,30.23,0,0,1,5.19-8,26.27,26.27,0,0,1,7.84-5.91,33.44,33.44,0,0,1,8.62-2.76,68.72,68.72,0,0,1,15.78-.62c9.91.65,19.15,1.84,28.34,1.75s18.24-1.61,26.37-5.87a51,51,0,0,0,11.39-7.93l.1-.1a1.19,1.19,0,0,1,1.76,1.6,54.15,54.15,0,0,1-10.82,10.38c-8.21,5.85-18.24,9-28.12,10.39s-19.81,1.5-29.05,1.74c-13,.35-25.9-.16-30.79,28.2-20,115.95-71.31,105.93-76.1,158.71-3.23,35.65,68.07,49.13,98.62,16.41,26.89-28.8,22.34-55.07,38.76-111.12s136.51,32.44,170.85-3.4c31.11-32.47,15.21-60.52,30.5-118,.68-2.1,1.38-4.19,2.13-6.26q2.12-5.83,4.57-11.5a1.19,1.19,0,0,1,2.24.78,226.57,226.57,0,0,0-7.31,39.86c-.81,9.4-1.07,18.82-1.22,28.36s-.14,19.24-1.35,29.3a93.24,93.24,0,0,1-3.05,15.22,69.18,69.18,0,0,1-6.32,14.73,79.89,79.89,0,0,1-9.42,13,35.48,35.48,0,0,1-16,9.86,60.65,60.65,0,0,1-16.74,2.51,113.66,113.66,0,0,1-15.69-.82c-6.21-.75-12.25-1.82-18.18-3-1.46-.3-2.9-.6-4.35-.92-2.29-.5-43.14-10.74-61-14-6.61-1.22-14.29-2.41-20.27-3-7.23-.7-8.72,1.79-4.37,6.44,17.11,18.33,39.89,38.38,70.53,51,36.84,15.17,79.48,23.84,111.69,25.45,75.6,3.77,123.47,25.14,114.16,87.9-14.7,99.13,29.33,116.09,44.14,230.13,12.64,97.39,7.12,136.28-8.76,181.49-21.44,61-79.14,80.38-96.81,102.12-21.83,26.88,13.81,43.45,43.21,43.13,30.94-.35,76.28-51.71,111.6-125.32C1437,1667,1441.37,1646.83,1440.82,1633.91Z" transform="translate(42.03 33.84)"/><path class="cls-6" d="M618.88,1131.72l.5-.33Z" transform="translate(42.03 33.84)"/><path class="cls-6" d="M336.92,1093.52c0,.06,0,.12.05.17S336.94,1093.58,336.92,1093.52Z" transform="translate(42.03 33.84)"/><polygon class="cls-7" points="487.06 1066.18 487.06 1066.18 487.2 1066.86 487.06 1066.18"/><path class="cls-6" d="M828.05,1247.52c-10.76-12.36-2-30.2,1.4-63.27,4.67-44.83-8.14-42.86-2-67.72,11.82-48,59.77-56.28,66.88-107.73a100.86,100.86,0,0,0,1-17.94c-1.07-17.14-8.31-31-16.9-69.05a176.87,176.87,0,0,1-7.12,51.58c-23.56,82.81-79.08,86.25-84.08,138.78-6,62.9-16.68,71.08-32.17,135.86-12.92,54,39.93,48.1,72.54,23,7.24-5.56,7.64-16.11,1.29-22.67C828.58,1248.11,828.31,1247.82,828.05,1247.52Z" transform="translate(42.03 33.84)"/><path class="cls-6" d="M1568.69,1164.18c4.14-33.82-11.51-67.86-17.77-100.8a186.64,186.64,0,0,1-3.13-29.36c-.1-4.28-.88-20.85,5.6-31.26,17.13-27.55,59.74-79.54,68.78-113.66,9.1-34.33,41.11-89.5-26.1-182.05-50.12-69-132.54-82.77-146.31-85.39-42.4-6.27-74.43,6.63-102.16,41.82-25.73,32.67-27.32,116.82,10.79,90.91,18.85-12.82,44.76-64.3,100.85-45.25,31.26,10.62,56.3,45.5,70.58,80.05,8.72,21.12,7.55,61.5-3,90.42-16,44.1-44.08,38-58.33,19.55-46.87-60.76-141.48-65.73-179.3-189.07-11.88-38.74-107.48-122.2-184.07-264.76-4.34-8.09-7.81-16.64-5.23-25.45,11.93-40.72-2.71-43.43,1-60.29,4.31-19.68,1.93-56.45-3.26-83.74s-22.5-61.28-42.46-29.87c-11.63,18.31-20.69,34.86-30.24,52.75-14.17,26.52-27.88,55.77-40.77,54.54a9.94,9.94,0,0,1-6.79-3.31c-12.57,2.64-29.77-4.65-37.64-16.25-10.13-15-1.21-31.87,3.79-63.06,2.72-17,4.33-35.49,2.11-61.8a16.54,16.54,0,0,0-.89,2c-30.69,82-46.44,91.12-46.15,143.31a1.28,1.28,0,0,1-.33.85c-26.68,28.6-73.52,59.39-94.44,78.14-29.12,26.11-6,33.81-12.05,50-14.46,38.63-67.26,64.27-106.62,94.32-23.43,17.88-6.42,47.83,34.65,65.13A159.91,159.91,0,0,0,745,650.82a28,28,0,0,0,24-5.44C782.8,634.3,823.25,631.73,869.62,601c51.46-34.09,50.63-61.31,79.58-63.72,47.47-3.95,93.21,67,110.49,114.83,5.34,14.76,17.84,50.61,11.1,94.86-8,52.84-34.5,58.51-40.27,103.93-7.32,57.62,40.69,92.26,21.84,116.61a1.19,1.19,0,0,1,1.76,1.6,54.15,54.15,0,0,1-10.82,10.38c-8.21,5.85-18.24,9-28.12,10.39s-19.81,1.5-29,1.74c-13,.35-25.9-.16-30.79,28.2-20,115.95-71.31,105.93-76.1,158.71-3.24,35.65,68.07,49.13,98.62,16.41,26.89-28.8,22.34-55.07,38.76-111.12s132,36.67,172.64-3.34c32-31.55,13.28-60.07,28.58-117.54.67-2.1,1.62-5,2.37-7.07,1.41-3.88,2.82-7.42,4.46-11.2.58-1.35,1.91-1,1.52.41a225.33,225.33,0,0,0-6.93,39.91c-.82,9.41-1.21,19.48-1.37,29s.16,19.27-1.05,29.34a92.4,92.4,0,0,1-3.5,15,67.84,67.84,0,0,1-6.25,14.59,78.69,78.69,0,0,1-9.45,12.86,33.89,33.89,0,0,1-15.46,9.8,60.65,60.65,0,0,1-16.74,2.51,135.63,135.63,0,0,1-19.09-1.36c-4.13-.62-7.48-1-10.37-1.53-5.71-1.08-12.09-3.32-8.68-.06s15.4,8.17,30.44,12.49c60.18,17.3,96.69.45,114.86-3.43,18.62-4,45.74-12.31,80.77-5.31,17,3.39,38,7.42,51.76,21.16,44.62,44.6-45.14,132.3-10.57,245.61,7.91,25.95,23,55.51,16.89,98.18-2.63,18.23-9.49,41.25-17.18,51.16a30.22,30.22,0,0,0-6.41,20.15c2.14,39.43-1.54,87.2-14.4,123.81-21.44,61-79.14,80.38-96.81,102.12-21.83,26.88,13.65,46.48,43,44.53,45.4-3,76.5-53.11,111.82-126.72,5.6-11.66,10-31.8,9.47-44.72-2.2-51.71,23.34-173.29,47.42-205C1519.66,1387.83,1559.59,1238.42,1568.69,1164.18Zm-498-775.59c-6.46,9.89-20.37,12.5-29.83,11.78-3.58-.28-11.58-1-18.79-7a35,35,0,0,1-10.28-17.15c-4-16.3,8-28.8,22.62-53.61,22.22-37.85,22.35-60.88,31.53-60.45s14.73,23.37,15.3,25.7c1.55,6.31,1.79,11.37-2,44.72-1.64,14.43-3.39,28.84-4.9,43.29C1073.89,380.34,1073.48,384.37,1070.72,388.59Z" transform="translate(42.03 33.84)"/><path class="cls-5" d="M1340.08,1470.74c10.06,26.11-30.13,60.51-62.09,92.08-29.2,28.84-57.9,52.53-77.29,51.23-40.59-2.74-65.15-24.11-49.43-48s33.22-12.1,69-28.51,93.55-54.18,19.9-162.38c-45.59-67-72.43-165.15-34.35-194,11.53-8.74,43.06,1.7,62.17,6.54,65.78,16.69,43,78.17,48.38,141C1322,1394.16,1330.26,1445.23,1340.08,1470.74Z" transform="translate(42.03 33.84)"/><path class="cls-6" d="M1340.08,1470.74c-10.28-21.34-56.24-49.54-64.31-69.73-7.94-19.84-41.41-37.78-13.89,12.89,35.38,65.14-7.27,107.46-41.61,123.63-35.61,16.76-53.29,4.6-69,28.51s8.84,45.27,49.43,48c19.39,1.3,48.09-22.39,77.29-51.23C1310,1531.25,1352.23,1496,1340.08,1470.74Z" transform="translate(42.03 33.84)"/><path class="cls-6" d="M322.64,1133.83l-31.81,67.87-44.64,3.63a193.14,193.14,0,0,0,115.28,149.8c98.15,42,211.73-3.59,253.69-101.73a193.3,193.3,0,0,0-32.26-203.31l-73.7,6-39.92-69.32a193.48,193.48,0,0,0-194.09,85.64Zm103.92,48.7,75.27-6.11,43.45,61.75-31.81,67.88-75.26,6.11-43.46-61.75Z" transform="translate(42.03 33.84)"/></g></g></svg>