<svg xmlns="http://www.w3.org/2000/svg" xmlns:xlink="http://www.w3.org/1999/xlink" viewBox="0 0 2081.73 2081.77"><defs><style>.cls-1{isolation:isolate;}.cls-2{fill:url(#Новий_зразок_градієнта_1);}.cls-3,.cls-4{mix-blend-mode:multiply;}.cls-3,.cls-7{opacity:0.5;}.cls-4{fill:url(#Градієнт_без_назви_12);}.cls-5{fill:#fff;}.cls-6{opacity:0.7;}</style><linearGradient id="Новий_зразок_градієнта_1" x1="46.03" y1="466.17" x2="2424.64" y2="1840.25" gradientUnits="userSpaceOnUse"><stop offset="0.03" stop-color="#11c3c0"/><stop offset="0.29" stop-color="#0c9d9b"/><stop offset="0.6" stop-color="#067977"/><stop offset="0.84" stop-color="#036260"/><stop offset="1" stop-color="#025a58"/></linearGradient><linearGradient id="Градієнт_без_назви_12" x1="-201.73" y1="-64.84" x2="2137.48" y2="2347.96" gradientUnits="userSpaceOnUse"><stop offset="0.41" stop-color="#002936" stop-opacity="0.8"/><stop offset="0.78" stop-color="#003c4f" stop-opacity="0"/></linearGradient></defs><g class="cls-1"><g id="Шар_1" data-name="Шар 1"><rect class="cls-2" width="2081.72" height="2081.72"/><g class="cls-3"><path class="cls-4" d="M1432.57,498.47S1161.76,713.5,1142,728.81c-11.14,8.64-62.52,57-74.3,53.15-66.39-21.47-85.3,21.89-85.3,21.89l288.72,260,.09,138.2c.26,7.55,3,139.09,3,139.09s-415.7-374.35-418-376.33c-20.77-18.08-58.91-15.45-90.21,7.63-34.73,25.61-47.89,66.7-29.39,91.79a41.53,41.53,0,0,0,4.59,5.2l0,0,.53.47c.45.42.89.84,1.36,1.24l89.32,80.48-1.19.66c-24.39,13.85-39.11,36.7-34.83,59.23a42.44,42.44,0,0,0,3.08,9.42l0,.1-101-90.84h0c-12.49-12.24-30.93-21.41-52.34-24.59-42.68-6.34-81,13.51-85.57,44.34-2.52,17,5.63,33.61,20.77,46.42l282.17,254.08-61.22-.53-2,225.67-252.48-6.09L516.71,1641l.7-75.73-190-3.35c-1,0-19.24,101.81-19.24,101.81L727,2040.84l1313.82.05V1045.72Z" transform="translate(40.86 40.89)"/></g><path class="cls-5" d="M1349.1,1405.24c-20.5.22-37.31-17.65-37.55-39.93l-1.82-167.19,236.56-3.8,1.82,168.42c.24,22.28-16.17,40.52-36.67,40.74Z" transform="translate(40.86 40.89)"/><path class="cls-5" d="M1353.4,1456.51a89.07,89.07,0,0,1-88.94-88l-4.53-417.83a89.06,89.06,0,0,1,88-89.92l152.89-1.66h1a89,89,0,0,1,88.92,88l4.53,417.83a88.95,88.95,0,0,1-88,89.91l-152.89,1.66Zm148.39-577.4H1501l-152.89,1.66a69,69,0,0,0-68.2,69.7l4.53,417.83a69,69,0,0,0,68.94,68.21h.76l152.89-1.66a68.94,68.94,0,0,0,68.2-69.69l-4.53-417.84a68.95,68.95,0,0,0-68.93-68.2Z" transform="translate(40.86 40.89)"/><g class="cls-6"><path class="cls-5" d="M1349.1,1405.24c-20.5.22-37.43-28.25-37.81-63.59L1308,1037l236.55-4.52,3.33,306.57c.38,35.34-15.92,64.18-36.42,64.4Z" transform="translate(40.86 40.89)"/></g><g class="cls-6"><rect class="cls-5" x="1288.21" y="701.49" width="269.8" height="93.67" rx="46.84" transform="matrix(1, -0.01, 0.01, 1, 32.83, 56.38)"/></g><rect class="cls-5" x="1491.28" y="793.65" width="20" height="76.71" transform="translate(31.93 57.22) rotate(-0.62)"/><rect class="cls-5" x="1335.09" y="795.16" width="20" height="76.9" transform="translate(31.63 55.97) rotate(-0.64)"/><g class="cls-6"><path class="cls-5" d="M949.64,1181.11c6.05,30.57-23.36,62.15-65.69,70.53s-81.55-9.62-87.6-40.2c-4.42-22.36,10.13-45.27,34.83-59.23,1.57-.89,3.17-1.73,4.81-2.54a104.92,104.92,0,0,1,26-8.75C904.37,1132.54,943.59,1150.53,949.64,1181.11Z" transform="translate(40.86 40.89)"/></g><g class="cls-7"><ellipse class="cls-5" cx="859.55" cy="1194.52" rx="51.08" ry="36.9" transform="translate(-174.69 230.49) rotate(-11.19)"/></g><circle class="cls-5" cx="882.61" cy="1235.4" r="21.81"/><g class="cls-6"><path class="cls-5" d="M862.36,971.4c18.5,25.08,5.34,66.18-29.39,91.79-31.22,23-69.25,25.69-90.05,7.77a41.37,41.37,0,0,1-6.32-6.82c-18.5-25.09-5.34-66.18,29.39-91.79S843.86,946.31,862.36,971.4Z" transform="translate(40.86 40.89)"/></g><g class="cls-7"><ellipse class="cls-5" cx="784.97" cy="1014.75" rx="51.08" ry="36.9" transform="translate(-408.18 704.79) rotate(-36.4)"/></g><circle class="cls-5" cx="809.77" cy="1063.23" r="21.81"/><g class="cls-6"><ellipse class="cls-5" cx="637.91" cy="1161.35" rx="56.43" ry="78.13" transform="translate(-563.72 1662.55) rotate(-81.55)"/></g><g class="cls-7"><ellipse class="cls-5" cx="629.75" cy="1148.97" rx="36.9" ry="51.08" transform="translate(-523.55 1729.02) rotate(-85.57)"/></g><circle class="cls-5" cx="654.26" cy="1188.59" r="21.81"/><rect class="cls-5" x="970.69" y="775.33" width="47.34" height="20" transform="translate(-231.86 824.83) rotate(-38.24)"/><g class="cls-6"><path class="cls-5" d="M890.4,733.72c-24.64-5.07-46.45-14.35-63.23-25.9A7.86,7.86,0,0,0,815,712.93c-4.18,25.19,17.41,60,54.43,84.2,43.68,28.56,92.28,31.55,108.54,6.67,8.14-12.45,6.63-29.51-2.38-47A36,36,0,0,0,941,737.27,185,185,0,0,1,890.4,733.72Z" transform="translate(40.86 40.89)"/></g><path class="cls-5" d="M1057.67,791.9a93.34,93.34,0,0,1-25.27-3.81,152.34,152.34,0,0,1-23.82-9.12l-8.65-4.12,4-9.41c5.1-12.08,3.54-31.36-4.39-54.31-8.51-24.65-24-52-43.73-77s-42.64-46.48-64.61-60.52c-20.46-13.08-38.84-19.1-51.74-17l-.32.05-9.68,1.92L827.36,549a152.11,152.11,0,0,1-3.31-25.32c-1-25.05,6.09-44.28,20.47-55.61l.54-.41c20.71-15.84,53-13.34,90.83,7.05,35.46,19.1,72.64,52,104.67,92.66s55.33,84.49,65.61,123.43c11,41.6,5.86,73.53-14.39,90l-.53.44C1082.23,788.31,1070.86,791.9,1057.67,791.9Zm-32.51-27.46a118.61,118.61,0,0,0,12.68,4.4c12.33,3.49,29.45,5.75,41-3.32l.26-.21c13.64-11,16.46-36.28,7.73-69.39-9.59-36.36-31.6-77.62-62-116.16s-65.34-69.6-98.45-87.43c-30.15-16.24-55.4-19.41-69.27-8.71l-.29.21c-11.5,9.11-13.31,26.27-12.8,39.07a118.67,118.67,0,0,0,1.32,13.37c16.33.17,35.67,7.16,56.6,20.52,24.15,15.44,48.21,37.91,69.55,65s37.57,55.72,46.92,82.82C1026.54,728.07,1028.81,748.52,1025.16,764.44Zm53.55,1.2h0Z" transform="translate(40.86 40.89)"/><path class="cls-5" d="M944.32,832c-13.44,0-29.09-4.6-46.13-13.74-28.13-15.09-57.59-41.13-83-73.32s-43.8-66.93-51.89-97.81c-8.83-33.66-4.39-59.53,12.5-72.83s43.07-11.58,73.74,4.88c28.13,15.09,57.59,41.13,82.95,73.32s43.8,66.92,51.89,97.8c8.83,33.66,4.39,59.53-12.5,72.84C964.43,829,955.08,832,944.32,832ZM803.48,585.47c-6.22,0-11.41,1.5-15.25,4.53-10.11,8-12.12,26.93-5.54,52,7.41,28.28,24.55,60.42,48.25,90.5s50.95,54.26,76.71,68.08c22.88,12.27,41.8,14.75,51.9,6.79,20.32-16,7.77-78.49-42.71-142.55C875.91,612.93,830.16,585.47,803.48,585.47Z" transform="translate(40.86 40.89)"/><g class="cls-6"><path class="cls-5" d="M851.65,475.19l324.83-256c35.8-28.21,117.27,15.5,182,97.63s88.18,171.57,52.38,199.78L1086,772.6a3.4,3.4,0,0,1-.3.23c-16.52,12.75-42.59,10.4-72.22-3.79,12.38-29.33-7-87.38-49.49-141.32s-94.44-86.36-125.84-81.16c-6.88-32.14-3-58,13.2-71.12Z" transform="translate(40.86 40.89)"/></g><path class="cls-5" d="M1058.64,791.05c-14.57,0-31.32-4.36-49.46-13l-8.55-4.09,3.69-8.74c5.09-12.06,3.53-31.35-4.4-54.32-8.52-24.65-24-52-43.74-77s-42.65-46.49-64.63-60.53c-20.47-13.08-38.86-19.11-51.77-17l-9.36,1.55-2-9.28c-7.93-37-2.06-65.73,16.54-80.83l.52-.42h0l324.84-256c20.61-16.25,52.93-13.94,91,6.49,35.55,19.07,72.82,52,104.94,92.8s55.46,84.71,65.69,123.74c11,41.79,5.65,73.76-15,90l-324.83,256-.53.4C1082.71,787.65,1071.53,791.05,1058.64,791.05Zm-33.07-27.5c23.53,9.75,42.54,10.29,54.06,1.41l.27-.2,324.78-255.93c13.81-10.89,16.74-36.16,8-69.34-9.55-36.44-31.59-77.8-62.07-116.47s-65.53-69.78-98.72-87.59c-30.23-16.22-55.49-19.27-69.3-8.39L857.87,483l-.28.23c-11.34,9.12-15.25,27.74-11.28,52.9,16.19.33,35.3,7.3,56,20.5,24.15,15.43,48.2,37.9,69.54,65s37.56,55.71,46.91,82.8C1026.71,727.52,1029,747.73,1025.57,763.55Zm54.47,1.11h0ZM858,482.81h0Z" transform="translate(40.86 40.89)"/><rect class="cls-5" x="794.79" y="550.96" width="47.23" height="20" transform="translate(-130.74 667.79) rotate(-38.24)"/><g class="cls-6"><path class="cls-5" d="M781.25,581.13,831.58,549l.68-.11c31.4-5.19,83.32,27.21,125.83,81.16s61.87,112,49.49,141.32c-.08.21-.19.43-.27.64l-43,41.41c21.94-25.61,2.9-91.71-45.13-152.67S811.29,565.8,781.25,581.13Z" transform="translate(40.86 40.89)"/></g><path class="cls-5" d="M1030.05,1690.63h-1.11l-461-7.27a68.4,68.4,0,0,1-67.29-69.45l1.76-111a68.46,68.46,0,0,1,68.35-67.3h1.09l461,7.28a68.38,68.38,0,0,1,67.29,69.45l-1.75,111a68.38,68.38,0,0,1-68.34,67.3Zm-509.41-76.42a48.39,48.39,0,0,0,47.61,49.14l461,7.27a48.37,48.37,0,0,0,49.14-47.6l1.75-111a48.37,48.37,0,0,0-47.61-49.13l-461-7.28h-.78a48.39,48.39,0,0,0-48.36,47.62Z" transform="translate(40.86 40.89)"/><rect class="cls-5" x="219.71" y="1531.06" width="215.42" height="61.53" rx="30.77" transform="translate(1935.08 1299.99) rotate(90.9)"/><rect class="cls-5" x="1102.97" y="1545.84" width="83.17" height="41.58" rx="20.79" transform="translate(2769.92 487.84) rotate(90.9)"/><rect class="cls-5" x="669.53" y="1521.28" width="227.75" height="83.16" transform="matrix(-0.02, 1, -1, -0.02, 2399.29, 845.11)"/><rect class="cls-5" x="514.77" y="1347.56" width="20" height="434.77" transform="translate(-1007.39 2105.83) rotate(-89.1)"/><path class="cls-5" d="M1399.09,1582.24H1399l-204.08-2.49a9.94,9.94,0,1,1,.25-19.88l204.07,2.48a9.95,9.95,0,0,1-.12,19.89Z" transform="translate(40.86 40.89)"/><g class="cls-6"><path class="cls-5" d="M1048.5,1458.53l-232.76-3.68A35.19,35.19,0,0,0,780,1489.47l-2.31,146.64a35.17,35.17,0,0,0,34.61,35.72l63.22,1,1.28-81a9.95,9.95,0,1,1,19.89.31l-1.28,81,23.33.37,1.3-82a9.94,9.94,0,1,1,19.88.31l-1.29,82.06,23.34.36,1.31-83.11a9.94,9.94,0,1,1,19.88.31l-1.31,83.12,63.22,1a35.18,35.18,0,0,0,35.72-34.62l2.32-146.64A35.17,35.17,0,0,0,1048.5,1458.53Z" transform="translate(40.86 40.89)"/></g><path class="cls-5" d="M1230.07,464a10,10,0,0,1,0-20,40.75,40.75,0,0,0,0-81.5,10,10,0,0,1,0-20,60.75,60.75,0,0,1,0,121.5Z" transform="translate(40.86 40.89)"/><circle class="cls-5" cx="1270.93" cy="444.17" r="21.81"/><path class="cls-5" d="M1235.41,559.5a60.81,60.81,0,0,1-60.74-60.75,10,10,0,0,1,20,0,40.75,40.75,0,1,0,81.49,0,10,10,0,0,1,20,0A60.82,60.82,0,0,1,1235.41,559.5Z" transform="translate(40.86 40.89)"/><circle class="cls-5" cx="1276.28" cy="539.64" r="21.81"/><path class="cls-5" d="M1139.72,565.1a60.75,60.75,0,0,1,0-121.5,10,10,0,0,1,0,20,40.75,40.75,0,0,0,0,81.5,10,10,0,0,1,0,20Z" transform="translate(40.86 40.89)"/><circle class="cls-5" cx="1180.58" cy="545.24" r="21.81"/><path class="cls-5" d="M1184.67,418.43a10,10,0,0,1-10-10,40.75,40.75,0,0,0-81.5,0,10,10,0,1,1-20,0,60.75,60.75,0,0,1,121.5,0A10,10,0,0,1,1184.67,418.43Z" transform="translate(40.86 40.89)"/><circle class="cls-5" cx="1174.78" cy="449.32" r="21.81"/></g></g></svg>