<svg xmlns="http://www.w3.org/2000/svg" xmlns:xlink="http://www.w3.org/1999/xlink" viewBox="0 0 2083.62 2081.72"><defs><style>.cls-1{fill:none;}.cls-2{isolation:isolate;}.cls-3{fill:url(#Градієнт_без_назви_28);}.cls-4{clip-path:url(#clip-path);}.cls-5{fill:#823600;}.cls-6{clip-path:url(#clip-path-2);}.cls-7{clip-path:url(#clip-path-3);}.cls-8{clip-path:url(#clip-path-4);}.cls-9{clip-path:url(#clip-path-5);}.cls-10{clip-path:url(#clip-path-6);}.cls-11{clip-path:url(#clip-path-7);}.cls-12{clip-path:url(#clip-path-8);}.cls-13{clip-path:url(#clip-path-9);}.cls-14{clip-path:url(#clip-path-10);}.cls-15{mix-blend-mode:multiply;}.cls-16{fill:url(#Градієнт_без_назви_3);}.cls-17{fill:#fff;}.cls-18{opacity:0.7;}</style><linearGradient id="Градієнт_без_назви_28" x1="-261.68" y1="288.41" x2="2116.93" y2="1662.49" gradientUnits="userSpaceOnUse"><stop offset="0.06" stop-color="#ffd34a"/><stop offset="0.19" stop-color="#ffbe3e"/><stop offset="0.45" stop-color="#ff9a28"/><stop offset="0.66" stop-color="#ff831b"/><stop offset="0.8" stop-color="#ff7b16"/></linearGradient><clipPath id="clip-path" transform="translate(41.81 24.7)"><path class="cls-1" d="M977.63,305.28c.33.15.65.32,1,.49C978.28,305.6,978,305.43,977.63,305.28Z"/></clipPath><clipPath id="clip-path-2" transform="translate(41.81 24.7)"><path class="cls-1" d="M980.05,306.7c.28.21.56.43.82.66C980.61,307.13,980.33,306.91,980.05,306.7Z"/></clipPath><clipPath id="clip-path-3" transform="translate(41.81 24.7)"><path class="cls-1" d="M976.35,304.78a11.3,11.3,0,0,1,1.1.42A11.3,11.3,0,0,0,976.35,304.78Z"/></clipPath><clipPath id="clip-path-4" transform="translate(41.81 24.7)"><path class="cls-1" d="M979.62,306.41c-.15-.11-.3-.22-.46-.32l-.22-.12Z"/></clipPath><clipPath id="clip-path-5" transform="translate(41.81 24.7)"><path class="cls-1" d="M981.91,308.36a8,8,0,0,0-.65-.65A8,8,0,0,1,981.91,308.36Z"/></clipPath><clipPath id="clip-path-6" transform="translate(41.81 24.7)"><path class="cls-1" d="M971.78,304c.45,0,.9,0,1.34.07C972.68,304.05,972.23,304,971.78,304Z"/></clipPath><clipPath id="clip-path-7" transform="translate(41.81 24.7)"><path class="cls-1" d="M854.45,304.28c.44-.08.87-.15,1.32-.19C855.32,304.13,854.89,304.2,854.45,304.28Z"/></clipPath><clipPath id="clip-path-8" transform="translate(41.81 24.7)"><path class="cls-1" d="M973.47,304.13a12.73,12.73,0,0,1,1.26.2A12.73,12.73,0,0,0,973.47,304.13Z"/></clipPath><clipPath id="clip-path-9" transform="translate(41.81 24.7)"><path class="cls-1" d="M854.11,304.33a13.2,13.2,0,0,0-10.2,9.71A13.2,13.2,0,0,1,854.11,304.33Z"/></clipPath><clipPath id="clip-path-10" transform="translate(41.81 24.7)"><path class="cls-1" d="M974.84,304.35c.39.09.78.19,1.15.31C975.62,304.54,975.23,304.44,974.84,304.35Z"/></clipPath><linearGradient id="Градієнт_без_назви_3" x1="-167.88" y1="92.94" x2="2210.55" y2="1917.93" gradientUnits="userSpaceOnUse"><stop offset="0.13" stop-color="#823600" stop-opacity="0.8"/><stop offset="0.45" stop-color="#823600" stop-opacity="0.43"/><stop offset="0.75" stop-color="#823600" stop-opacity="0.12"/><stop offset="0.91" stop-color="#823600" stop-opacity="0"/></linearGradient></defs><g class="cls-2"><g id="Шар_1" data-name="Шар 1"><rect class="cls-3" width="2081.72" height="2081.72"/><g class="cls-4"><polygon class="cls-5" points="1020.27 329.99 1019.96 330.48 1019.45 330.48 1019.45 329.99 1020.27 329.99"/><polygon class="cls-5" points="1019.96 330.48 1020.27 329.99 1020.41 329.99 1020.41 330.48 1019.96 330.48"/></g><g class="cls-6"><polygon class="cls-5" points="1022.66 331.4 1022.25 332.06 1021.86 332.06 1021.86 331.4 1022.66 331.4"/><polygon class="cls-5" points="1022.25 332.06 1022.66 331.4 1022.68 331.4 1022.68 332.06 1022.25 332.06"/></g><g class="cls-7"><polygon class="cls-5" points="1019.05 329.48 1018.78 329.9 1018.16 329.9 1018.16 329.48 1019.05 329.48"/><polygon class="cls-5" points="1018.78 329.9 1019.05 329.48 1019.26 329.48 1019.26 329.9 1018.78 329.9"/></g><g class="cls-8"><polygon class="cls-5" points="1021.37 330.67 1021.09 331.11 1020.75 331.11 1020.75 330.67 1021.37 330.67"/><polygon class="cls-5" points="1021.09 331.11 1021.37 330.67 1021.43 330.67 1021.43 331.11 1021.09 331.11"/></g><g class="cls-9"><polygon class="cls-5" points="1023.73 332.47 1023.35 333.06 1023.08 333.06 1023.08 332.42 1023.73 332.42 1023.73 332.47"/><polygon class="cls-5" points="1023.35 333.06 1023.73 332.47 1023.73 333.06 1023.35 333.06"/></g><g class="cls-10"><polygon class="cls-5" points="1014.49 328.72 1014.44 328.79 1013.59 328.79 1013.59 328.72 1014.49 328.72"/><polygon class="cls-5" points="1014.44 328.79 1014.49 328.72 1014.93 328.72 1014.93 328.79 1014.44 328.79"/></g><g class="cls-11"><polygon class="cls-5" points="897.16 328.79 897.04 328.98 896.26 328.98 896.26 328.79 897.16 328.79"/><polygon class="cls-5" points="897.04 328.98 897.16 328.79 897.58 328.79 897.58 328.98 897.04 328.98"/></g><g class="cls-12"><polygon class="cls-5" points="1016.18 328.83 1016.05 329.03 1015.28 329.03 1015.28 328.83 1016.18 328.83"/><polygon class="cls-5" points="1016.05 329.03 1016.18 328.83 1016.55 328.83 1016.55 329.03 1016.05 329.03"/></g><g class="cls-13"><polygon class="cls-5" points="889.84 329.03 885.72 335.51 885.72 329.03 889.84 329.03"/><polygon class="cls-5" points="894.21 329.03 888.04 338.74 885.72 338.74 885.72 335.51 889.84 329.03 894.21 329.03"/><polygon class="cls-5" points="888.04 338.74 894.21 329.03 895.92 329.03 895.92 338.74 888.04 338.74"/></g><g class="cls-14"><polygon class="cls-5" points="1017.53 329.06 1017.33 329.36 1016.66 329.36 1016.66 329.06 1017.53 329.06"/><polygon class="cls-5" points="1017.33 329.36 1017.53 329.06 1017.8 329.06 1017.8 329.36 1017.33 329.36"/></g><g class="cls-15"><path class="cls-16" d="M2039.91,763.09S1419.26,205,1417.24,202.48c-.06-.08-216.33,3.94-372.75,5.05-45.44.33-91.9,57.77-98.8,96.49H970c8.65,0,12,4.34,12,4.34a13.33,13.33,0,0,1,3.25,10.33l-12.1,78-10.85,69.92c-2,13.07-13.87,22.76-27.83,22.76H894.49c-14,0-25.8-9.69-27.82-22.76L855.82,396.7h0l0,.2-35.78-.2a5,5,0,0,0-3.73,8.37l.3.32c21.41,23.06,30.85,64,30.85,99.13V676a27.09,27.09,0,0,1-19,25.85A286.92,286.92,0,0,0,688,799.74l-66.12-59a7.72,7.72,0,0,0-5.92-2.81l-203.55-1.28a16,16,0,0,0-16.07,16.18A15.66,15.66,0,0,0,402,765a103,103,0,0,1,36.51,78.64v711.57c0,1.07,0,2.18.08,3.29-.05-1.09-.08-2.19-.08-3.29V1059.89h133.9v495.27a67,67,0,0,1-66.95,66.95h0a67,67,0,0,1-66.86-63.42c1.07,21.42,11.13,49.4,11.13,49.4L949.43,2057H2039.91C2044.19,2057,2039.91,763.09,2039.91,763.09Zm-597.58,549.8c-95.74.61-131,68.79-213.7,66.63-88.08-2.29-116.16-51.36-116.16-51.36l135-232.74a118.52,118.52,0,0,0,16-59.47V904.23A102.93,102.93,0,0,0,1227,825.59c-11.42-9.65-4.6-28.29,10.35-28.29h189.9c15.76,0,20.77,21.24,6.68,28.29a102.93,102.93,0,0,0-36.52,78.64v129.06a118.5,118.5,0,0,0,15.77,59.06L1568.68,1363S1516.63,1312.41,1442.33,1312.89Z" transform="translate(41.81 24.7)"/></g><path class="cls-17" d="M505.47,1632.11a77,77,0,0,1-77-76.95V843.59a92.75,92.75,0,0,0-33-71,26,26,0,0,1,16.8-45.93H598.58a26,26,0,0,1,16.81,45.93,92.75,92.75,0,0,0-33,71v711.57A77,77,0,0,1,505.47,1632.11ZM412.35,746.66a6,6,0,0,0-3.89,10.65,112.71,112.71,0,0,1,40.06,86.28v711.57a57,57,0,1,0,113.9,0V843.59a112.71,112.71,0,0,1,40.06-86.28,6,6,0,0,0-3.9-10.65Z" transform="translate(41.81 24.7)"/><g class="cls-18"><path class="cls-17" d="M505.47,1622.11h0a67,67,0,0,1-67-66.95V1059.89h133.9v495.27A67,67,0,0,1,505.47,1622.11Z" transform="translate(41.81 24.7)"/></g><path class="cls-17" d="M505.6,1621.91h0a67,67,0,0,1-67-67V1265.4h133.9V1555A67,67,0,0,1,505.6,1621.91Z" transform="translate(41.81 24.7)"/><path class="cls-17" d="M1624.74,1571.47h-.09l-592.83-1.19a42.35,42.35,0,0,1-36.55-63.59l241.46-416.29a108.68,108.68,0,0,0,14.65-54.45V904.23a92.75,92.75,0,0,0-33-71,26,26,0,0,1,16.8-45.93h189.9a24.93,24.93,0,0,1,12.35,46.59,92.76,92.76,0,0,0-32.19,70.34v129.06a108.62,108.62,0,0,0,14.44,54.08L1661.45,1508a42.34,42.34,0,0,1-36.71,63.45ZM1235.21,807.3a6,6,0,0,0-3.9,10.65,112.72,112.72,0,0,1,40.07,86.28V1036a128.7,128.7,0,0,1-17.35,64.49l-241.46,416.29a22.35,22.35,0,0,0,19.29,33.55l592.83,1.19h0a22.34,22.34,0,0,0,19.37-33.48l-241.74-420.66a128.61,128.61,0,0,1-17.1-64V904.23A112.74,112.74,0,0,1,1425.33,818l.92-.77,1.07-.54a4.93,4.93,0,0,0-2.21-9.34Z" transform="translate(41.81 24.7)"/><g class="cls-18"><path class="cls-17" d="M1247.47,1095.42l-135,232.74s28.08,49.07,116.16,51.36c82.71,2.16,118-66,213.7-66.63,74.3-.48,126.35,50.13,126.35,50.13l-155.55-270.67a118.5,118.5,0,0,1-15.77-59.06V904.23a102.93,102.93,0,0,1,36.52-78.64h0c14.09-7.05,9.08-28.29-6.68-28.29H1237.3c-15,0-21.77,18.64-10.35,28.29h0a102.93,102.93,0,0,1,36.52,78.64V1036A118.52,118.52,0,0,1,1247.47,1095.42Z" transform="translate(41.81 24.7)"/></g><path class="cls-17" d="M1057.77,1222.66h-.1c-30.87-.05-82.89-.2-138-.37-57-.17-115.86-.34-149.71-.39a62.58,62.58,0,0,1-38.27-13.27,299.11,299.11,0,0,1-82.84-101.54A293.38,293.38,0,0,1,618,975.14,296.72,296.72,0,0,1,825.48,692.27a17,17,0,0,0,12-16.31V504.52c0-37.64-11.06-73.88-28.18-92.33l-.38-.41a15,15,0,0,1,11.2-25.08c31.51.19,138.18.8,187.68.88a15,15,0,0,1,11.44,24.67c-1.27,1.51-2.42,2.89-3.12,3.76-8,9.9-26.33,38.31-24.75,88.19,1.35,42.41.07,165.68,0,171.8a17.12,17.12,0,0,0,12.11,16.3,296.17,296.17,0,0,1,207.41,282.84,293.52,293.52,0,0,1-31.26,132.65,299.24,299.24,0,0,1-83.71,101.78A62.58,62.58,0,0,1,1057.77,1222.66ZM830.66,406.76c19.63,27.12,26.83,67.26,26.83,97.76V676a37,37,0,0,1-26,35.39A276.11,276.11,0,0,0,638,975.14c0,85.55,38.67,164.91,106.1,217.75a42.45,42.45,0,0,0,26,9c33.86,0,92.76.22,149.73.39,55.06.17,107.08.32,137.93.37h.07a42.54,42.54,0,0,0,25.92-8.9c68.14-52.83,107.22-132.51,107.22-218.62A276.13,276.13,0,0,0,997.5,711.38,37,37,0,0,1,971.39,676v-.11c0-1.28,1.35-128.87,0-171-1.2-37.68,8.25-72.78,26-97.28C949.92,407.43,868,407,830.66,406.76Z" transform="translate(41.81 24.7)"/><g class="cls-18"><path class="cls-17" d="M934.38,489.38H894.49c-14,0-25.8-9.69-27.82-22.76L855.82,396.7l-12.1-78C842.52,311,848.85,304,857.11,304H971.77c8.26,0,14.59,6.94,13.39,14.67l-12.1,78-10.85,69.92C960.18,479.69,948.34,489.38,934.38,489.38Z" transform="translate(41.81 24.7)"/></g><circle class="cls-17" cx="1492.82" cy="1418.22" r="41.36"/><path class="cls-17" d="M1026.67,945.46A46.36,46.36,0,1,1,1073,899.1,46.41,46.41,0,0,1,1026.67,945.46Zm0-82.72A36.36,36.36,0,1,0,1063,899.1,36.4,36.4,0,0,0,1026.67,862.74Z" transform="translate(41.81 24.7)"/><circle class="cls-17" cx="1232.94" cy="1468.35" r="30.22"/><circle class="cls-17" cx="1370.13" cy="1498.57" r="30.22"/><path class="cls-17" d="M1160.9,974.44c-.19-24-28.62-36.47-46.48-20.41-21.19,19-51.67,37.1-92,38.93-101.1,4.6-134-62-203-91.91a153.87,153.87,0,0,0-67.35-12.43c-46.13,1.69-83.33,38.91-84.07,85.07,0,.49,0,1,0,1.45a243.87,243.87,0,0,0,25.68,109.67,248.78,248.78,0,0,0,68.92,84.46,12.44,12.44,0,0,0,7.51,2.63c34.09,0,92.77.22,149.51.39,55.1.17,107.15.32,138.13.37h0a12.61,12.61,0,0,0,7.54-2.6,249,249,0,0,0,69.63-84.67,243.89,243.89,0,0,0,26-110.25C1160.91,974.91,1160.91,974.68,1160.9,974.44Zm-384,25.93a30.22,30.22,0,1,1,30.22-30.22A30.22,30.22,0,0,1,776.86,1000.37ZM985.31,1129.8a41.36,41.36,0,1,1,41.36-41.36A41.36,41.36,0,0,1,985.31,1129.8Z" transform="translate(41.81 24.7)"/><path class="cls-17" d="M893.78,862.74A35.22,35.22,0,1,1,929,827.52,35.26,35.26,0,0,1,893.78,862.74Zm0-60.44A25.22,25.22,0,1,0,919,827.52,25.25,25.25,0,0,0,893.78,802.3Z" transform="translate(41.81 24.7)"/><path class="cls-17" d="M929.5,611.72a10,10,0,0,1-10-10V489.38a10,10,0,0,1,20,0V601.72A10,10,0,0,1,929.5,611.72Z" transform="translate(41.81 24.7)"/><path class="cls-17" d="M884.56,316.57a10,10,0,0,1-10-10V251a10,10,0,0,1,20,0v55.58A10,10,0,0,1,884.56,316.57Z" transform="translate(41.81 24.7)"/><path class="cls-17" d="M944,319.19a10,10,0,0,1-10-10c0-33,17-63.2,48-85.13,27.45-19.44,63.35-30.58,98.5-30.58H1407a10,10,0,0,1,0,20H1080.46c-61.1,0-126.51,38.45-126.51,95.71A10,10,0,0,1,944,319.19Z" transform="translate(41.81 24.7)"/></g></g></svg>