<svg xmlns="http://www.w3.org/2000/svg" viewBox="0 0 595.28 841.89"><defs><clipPath id="clip-path"><path d="m370.21 643.35-32.88-3.67 8.35-8.1a4.25 4.25 0 0 0-2.34-7.26l.18-8.72 3.27-3.15a4.26 4.26 0 0 0-2.88-7.32l-117.25-2.25a21.79 21.79 0 0 0-15.49 6.12l-31 28a4.21 4.21 0 0 0-1.26 2.48 9.29 9.29 0 0 0-5 8 9.77 9.77 0 0 0 .15 2l-6.26 6.08-.31 11.12 8.37.24a10.61 10.61 0 0 0 7.31 16.66s141.16 18.1 145.57 18.65c3.42.35 5.63-.86 8-2.75L370 673.07a4.84 4.84 0 0 0-2.43-8.61l-1-.12a8.31 8.31 0 0 1-.28-3.16 12.75 12.75 0 0 1 3.31-6.83l3-2.4a4.84 4.84 0 0 0-2.39-8.6Z" style="fill:none"/></clipPath><style>.cls-27{fill:none}.cls-13{fill:#292754}.cls-6{opacity:.7}.cls-28,.cls-7,.cls-9{fill:#1f4ca7}.cls-7{mix-blend-mode:multiply}.cls-16,.cls-34,.cls-7,.cls-9{opacity:.5}.cls-34,.cls-8{fill:#84d7f4}.cls-12{fill:#464463}.cls-15{fill:#a52b37}.cls-16,.cls-19,.cls-30,.cls-31{fill:#fff}.cls-21{fill:#afa875}.cls-25{fill:#ffc931}.cls-26{fill:#ce921b;opacity:.6}.cls-27{stroke:#c14d4d;stroke-width:2.88px;stroke-miterlimit:10}.cls-29{fill:#241035}.cls-30{opacity:.32}.cls-31{opacity:.52}.cls-39{fill:#af6416}</style></defs><g style="isolation:isolate"><g id="Шар_1" data-name="Шар 1"><path style="fill:#0a868c" d="M-21.92-16.3h632v875h-632z"/><path d="M277.7 798.58c-56.79 0-110.24-10.73-150.51-30.22-45.82-22.19-72.1-54.48-74-90.92-2-38.87 23.62-75.4 72.2-102.86 43.16-24.4 100.88-39.6 162.53-42.8 8-.42 16.12-.63 24.07-.63 56.79 0 110.24 10.73 150.51 30.23 45.82 22.18 72.1 54.47 74 90.92 2 38.87-23.62 75.4-72.21 102.86-43.16 24.39-100.88 39.59-162.52 42.8-8.02.41-16.12.62-24.07.62Z" style="opacity:.7;fill:#292754"/><ellipse cx="294.84" cy="656" rx="216.78" ry="108.07" transform="rotate(-2.98 294.563 655.512)" style="fill:#8f8faa;opacity:.7"/><g class="cls-6"><path class="cls-7" d="M409.45 611.18v-.94l17.83-33.07-14.85-11.67L380 596.09c-27.24-10.63-61.48-16.64-98.56-15.93-87.71 1.67-158.1 40.25-157.23 86.17s72.69 81.78 160.4 80.11 158.1-40.25 157.22-86.17c-.31-18.63-12.35-35.6-32.38-49.09Z"/></g><path class="cls-8" d="M362.32 641.93c-5.73 0-10.38-5.71-10.38-12.76V489.28l20.77-2.35v142.24c0 7.05-4.65 12.76-10.39 12.76Z"/><path class="cls-9" d="M356.43 634.41c-2.48 0-4.49-2.57-4.49-5.75V488.5l9-.85v141c-.02 3.19-2.03 5.76-4.51 5.76Z"/><path class="cls-8" d="M419.87 581.42c-5.73 0-10.38-5.72-10.38-12.77V457.86l20.77-2.36v113.15c0 7.05-4.65 12.77-10.39 12.77Z"/><path class="cls-9" d="M414 573.9c-2.48 0-4.49-2.58-4.49-5.75V457.08l9-.85v111.92c-.04 3.17-2.05 5.75-4.51 5.75Z"/><path class="cls-8" d="M184.54 640.55c-5.74 0-10.39-5.71-10.39-12.76V487.9l20.77 5.4v134.49c0 7.05-4.65 12.76-10.38 12.76Z"/><path class="cls-9" d="M178.64 633.48c-2.48 0-4.49-2.58-4.49-5.75V516.66l9-.85v111.92c-.02 3.17-2.03 5.75-4.51 5.75Z"/><g style="opacity:.49"><path d="M449.59 436.47s-73.71 62.06-75.4 62.15l-224.4.12c3.4 6.27 15.59 16.17 23.11 16.32 0 0 147.8 1.09 176.46 1.15 22.37 0 35.21 2.37 50.53-13.29C415.43 487 425 476 436.15 464.6c14.3-14.6 17.85-21.1 13.44-28.13Z" style="mix-blend-mode:multiply;fill:#1f4ca7;opacity:.7"/></g><rect class="cls-12" x="290.16" y="402.34" width="71.23" height="28.39" rx="5.42" transform="rotate(-90 325.78 416.54)"/><rect class="cls-13" x="236.55" y="308.9" width="170.42" height="108.95" rx="16.41"/><rect x="248.6" y="319.45" width="146.31" height="87.64" rx="13.64" style="fill:#8f8faa"/><path class="cls-8" d="M368.29 502.92h-220.7a5 5 0 0 1-3.49-8.51l53.9-53.13a27.8 27.8 0 0 1 19.2-8l230.17-2.39a5 5 0 0 1 3.6 8.44l-48 49a48.58 48.58 0 0 1-34.68 14.59Z"/><path class="cls-9" d="M335.79 470.61H216.44a2.69 2.69 0 0 1-1.88-4.6l29.15-28.73a15 15 0 0 1 10.38-4.28l124.46-1.29a2.68 2.68 0 0 1 1.95 4.56l-26 26.5a26.26 26.26 0 0 1-18.71 7.84Z"/><ellipse class="cls-9" cx="368.87" cy="480.9" rx="29.81" ry="13.7" transform="rotate(-21.26 368.821 480.86)"/><path class="cls-15" d="M373.57 486.47c-4.58.76-30.75 5.28-14.63-16.43 12.9-17.37 28.36-10.91 34.39-4.79 9.33 9.46 1.55 17.75-19.76 21.22Z"/><path class="cls-13" d="M300.17 490.39H190.4a3.57 3.57 0 0 1-2.53-6.08l20.84-21a25.48 25.48 0 0 1 18.08-7.53H336.4a3.57 3.57 0 0 1 2.54 6.07l-20.63 20.95a25.44 25.44 0 0 1-18.14 7.59Z"/><ellipse class="cls-12" cx="325.49" cy="438.38" rx="32.46" ry="10.72"/><ellipse class="cls-13" cx="325.92" cy="436.83" rx="21.77" ry="7.19"/><path class="cls-16" d="M305.35 390.36 287.57 389l81.62-69.56h11.33a15.15 15.15 0 0 1 3.09.2 12.12 12.12 0 0 1 3.3 1ZM313.46 401.83l81.46-68.75v38.69l-41.51 35.32-32.99-.11-6.96-5.15z"/><g style="clip-path:url(#clip-path)"><path d="M186.47 677.72 216.6 654a24.75 24.75 0 0 1 18.24-5.13l132.61 15.77a4.84 4.84 0 0 1 2.43 8.61l-33.29 26.33a11.91 11.91 0 0 1-9 2.46L188 683.45a3.22 3.22 0 0 1-1.53-5.73Z" style="fill:#308430"/><path class="cls-19" d="M366.17 661.35a12.73 12.73 0 0 1 3.3-6.83l1.53-10.17-59.83 47.46 18.89 8 38.46-30.08c-1.08-2.23-2.74-5.73-2.35-8.38Z"/><path d="m316.74 686.73-131.28-16.79a4.84 4.84 0 0 1-2.38-8.61l36.14-28.45a24.79 24.79 0 0 1 18.24-5.13l132.6 15.77a4.85 4.85 0 0 1 2.44 8.61l-37.26 29.46a24.78 24.78 0 0 1-18.5 5.14Z" style="fill:#58c658"/><path class="cls-13" d="M329 691.65a14.19 14.19 0 0 1 3.69-7.91 1.43 1.43 0 0 0-.85-2.41l-14-1.8-132.15-16.9a10.6 10.6 0 0 0-11.86 9.17 10.6 10.6 0 0 0 9.17 11.87l132.15 16.9 12.24 1.56a2.39 2.39 0 0 0 2.51-3.28 14.17 14.17 0 0 1-.9-7.2Z"/><path class="cls-21" d="m341.09 620.88-43.08 41.79 7.75 7.99 34.39-34.26.94-15.52zM177.77 661.32l32.49-31.53-7.75-7.99-34.88 33.85-.17 6 10.31-.33z"/><path transform="rotate(1.61 236.383 662.251)" style="fill:#e2db96" d="M167.45 657.59h138.5v11.13h-138.5z"/><path d="m185.8 651.46 24.12-23.2a21.75 21.75 0 0 1 15.49-6.07l117.25 2.25a4.25 4.25 0 0 1 2.88 7.31l-28.49 27.52a4.9 4.9 0 0 1-3.61 1.39l-125.71-4.18a2.92 2.92 0 0 1-1.93-5.02Z" style="fill:#a54c55"/><path class="cls-19" d="m343.1 628.93-31.55 30.75-14.75-4.49 46.77-48.07-.47 21.81z"/><path d="m300.93 647.7-118.07-3.26a4.25 4.25 0 0 1-2.83-7.32l31-28a21.73 21.73 0 0 1 15.49-6.07l117.25 2.25a4.25 4.25 0 0 1 2.87 7.31l-30 29a21.72 21.72 0 0 1-15.71 6.09Z" style="fill:#da636b"/><path class="cls-15" d="M311 651.46a12.46 12.46 0 0 1 2.54-7.23 1.26 1.26 0 0 0-.95-2l-12.36-.36-116.94-3.28a9.31 9.31 0 0 0-9.58 9.05 9.32 9.32 0 0 0 9.05 9.57l117 3.28 10.83.29a2.1 2.1 0 0 0 1.91-3.08 12.4 12.4 0 0 1-1.5-6.24Z"/><g class="cls-6"><path class="cls-7" d="m324.8 604.28-40.68 37.11s-1.63 2.64-1.63 8.29c0 7.6 4.38 10.1 4.38 10.1l-.41 10.34-8.68 4.29s-1.84 2-2.6 9a20.52 20.52 0 0 0 2.6 12.86l-113.51-15v-42.72l42.16-36.77Z"/></g></g><path class="cls-25" d="M279.64 398.32c-3.59-1.06-5.77 1.56-15 6.35-9.46 4.92-12.59 5-12.67 6.91-.16 3.45 9.58 8.52 18.61 7 6.94-1.17 15.52-6.58 15-12.84a8.89 8.89 0 0 0-5.94-7.42ZM310.13 384.72c2.18-2.5 5.05-1.58 14.22-2.4 9.4-.83 11.76-2.27 12.75-.87 1.76 2.5-3.1 10.92-10.56 14.09-5.74 2.44-14.72 2.49-17.34-2.42a7.88 7.88 0 0 1 .93-8.4Z"/><path class="cls-26" d="M322 386.56c.93-1.16 2.23-.81 6.32-1.35s5.21-1.25 5.68-.64c.84 1.08-1.17 4.95-4.45 6.51-2.52 1.2-6.53 1.4-7.8-.75a3.53 3.53 0 0 1 .25-3.77Z"/><path class="cls-25" d="M297.3 383.37c2.88-.57 16.78-3.34 27.73 5.29 8.85 7 10.74 17.43 11.88 23.77 2.39 13.24-2 17.79-1.32 31.69.61 13 4.89 18.68 8.59 30 8.47 26 3.6 50.31 2.31 56.78-2.27 11.33-12.55 52.29-47.87 67.68-5.66 2.47-23.4 10.2-42.59 3.3-23.09-8.29-31.72-31.81-34.33-38.95-11-29.89.55-58.29 4-66.69C237 468.35 250.17 470 258 441.81c4.52-16.25 2.23-24.3 10.89-37.31 2.99-4.5 11.9-17.84 28.41-21.13Z"/><path class="cls-26" d="M346.46 480.18c-.57-2.34-2-6.73-3.47-10.77a3.74 3.74 0 0 0-7-.22l-6 17.25c-1.44 3.37 1.88 7.9 4.16 12.2 7.74 14.57 2.14 37.73.06 50.47 0 .21-.07.41-.11.61a3.75 3.75 0 0 0 7.16 2.08c.25-.61.5-1.22.74-1.84 11.47-29.1 7.34-58.05 4.46-69.78ZM269.34 407c-1.65-.57-2.72.6-7.12 2.64s-6 2.05-6.05 2.95c-.14 1.6 4.29 4.17 8.52 3.66 3.26-.4 7.37-2.73 7.28-5.66a4.14 4.14 0 0 0-2.63-3.59Z"/><circle class="cls-27" cx="290.29" cy="415.34" r="16.64"/><circle class="cls-28" cx="293.3" cy="414.57" r="12.26"/><circle class="cls-29" cx="297.37" cy="410.85" r="5.26"/><circle class="cls-30" cx="286.07" cy="414.7" r="10.49"/><circle class="cls-31" cx="284.29" cy="416.87" r="7.45"/><circle class="cls-31" cx="282.64" cy="417.93" r="3.94"/><circle class="cls-27" cx="326.5" cy="407.91" r="16.64"/><circle class="cls-28" cx="329.4" cy="406.28" r="12.26"/><circle class="cls-29" cx="334.16" cy="402.94" r="5.26"/><circle class="cls-19" cx="337.91" cy="407.56" r="2.19"/><circle class="cls-19" cx="301.8" cy="415.86" r="2.19"/><circle class="cls-30" cx="322.95" cy="406.24" r="11.08"/><circle class="cls-31" cx="320.49" cy="409.44" r="7.45"/><circle class="cls-31" cx="318.85" cy="410.5" r="3.94"/><path class="cls-27" d="M311.55 401.29a4.78 4.78 0 0 0-9.24 2.46"/><path class="cls-16" d="M391.22 468.81c.28 4-4.27 6.26-10.17 6.68s-10.9-1.15-11.18-5.17 4.45-8.63 10.34-9.05 10.72 3.53 11.01 7.54Z"/><path d="M387.18 466.55c.16 1.68-1.55 2.44-4.25 2.71s-5.36-.07-5.53-1.74 1.84-3.92 4.54-4.19 5.06 1.54 5.24 3.22Z" style="fill:#fff;opacity:.49"/><g class="cls-6"><rect class="cls-7" x="393.72" y="139.04" width="81.76" height="108.93" rx="18.99"/></g><rect x="393.72" y="139.04" width="81.76" height="108.93" rx="18.99" style="stroke-width:3.23px;stroke:#fff;stroke-miterlimit:10;fill:none"/><rect class="cls-34" x="406.42" y="168.47" width="56.37" height="11.56" rx="5.78"/><rect class="cls-34" x="406.42" y="187.72" width="56.37" height="11.56" rx="5.78"/><rect class="cls-34" x="406.42" y="206.98" width="56.37" height="11.56" rx="5.78"/><g class="cls-6"><rect class="cls-7" x="97.25" y="217.42" width="173.64" height="9.51" rx="4.76"/></g><rect class="cls-8" x="111.43" y="210.19" width="173.64" height="9.51" rx="4.76"/><g class="cls-6"><path class="cls-7" d="M184.72 209.37c-22.33-3.14-38.56-23.42-37.05-34.1s32.61-6.89 55.14-7.48c27.66-.73 26.54 17.26 25 27.93s-20.81 16.79-43.09 13.65Z"/></g><g class="cls-6"><path class="cls-7" d="M248.06 103.16a51.08 51.08 0 0 0-14.55 1 53.74 53.74 0 0 0-14 5.13 56.37 56.37 0 0 0-21.75 20.38 59.91 59.91 0 0 0-3 5.52v-5.84c0-1.47-.13-3-.26-4.48s-.26-3-.48-4.47l-.31-2.22-.39-2.22c-.53-3-1.28-5.87-2.09-8.77A82.92 82.92 0 0 0 174 76a78.34 78.34 0 0 0-28.52-20.43c1.11.94 2.24 1.84 3.33 2.79l1.65 1.4 1.6 1.43c2.12 1.94 4.19 3.9 6.17 5.92A113.44 113.44 0 0 1 169 80a99.68 99.68 0 0 1 14.59 29.56c.36 1.32.77 2.64 1.1 4s.66 2.67.92 4l.42 2 .35 2c.26 1.36.41 2.73.62 4.1a121.33 121.33 0 0 1 1 16.21q-.78-1.51-1.65-3A56.44 56.44 0 0 0 151 113a55 55 0 0 0-14.4-1.55 48.77 48.77 0 0 0-7.14.7 33.38 33.38 0 0 0-6.91 1.89c4.46 1.74 8.6 3.37 12.6 5.16s7.78 3.64 11.38 5.64a102.56 102.56 0 0 1 10.22 6.47 86 86 0 0 1 9 7.52 90.1 90.1 0 0 1 14.6 18.64 106.59 106.59 0 0 1 5.19 9.92c-.52 2.95-1.11 5.9-1.79 8.85.75-1.25 1.41-2.55 2.07-3.85.34-.72.67-1.45 1-2.17 1.54 3.48 3 7.14 4.49 11a40.89 40.89 0 0 0 2.69-14.11v-1.13c1.05-2.26 2.1-4.46 3.19-6.6 2-3.89 4-7.58 6.22-11.08a103 103 0 0 1 7-9.87 84.63 84.63 0 0 1 8-8.6 88.14 88.14 0 0 1 9.11-7.38 90.28 90.28 0 0 1 10.25-6.25c7.25-3.83 15.23-6.78 24.29-9.72a40.82 40.82 0 0 0-14-3.32Z"/></g><path class="cls-8" d="M223.18 179.54a36.39 36.39 0 0 1-1.63-7.47c-.19-1.28-.22-2.54-.32-3.82s0-2.55 0-3.84a60.7 60.7 0 0 1 2.46-15.27 62 62 0 0 1 6.43-14.44c.73-1.12 1.48-2.22 2.24-3.33.38-.55.75-1.11 1.16-1.64l1.28-1.56 2.61-3.07c.94-1 1.93-1.88 2.89-2.82a59.35 59.35 0 0 1 28-14.84 55.14 55.14 0 0 1 15.54-1.12 43.59 43.59 0 0 1 14.87 3.56l-7.05 2.37c-1.13.44-2.26.77-3.36 1.22-.56.22-1.11.39-1.65.6l-1.63.64c-2.16.82-4.25 1.75-6.3 2.64-1 .5-2 1-3 1.43l-2.94 1.48a93.06 93.06 0 0 0-20.64 14.6l-2.37 2.14c-.71.76-1.41 1.54-2.13 2.29l-1.09 1.12c-.35.4-.67.81-1 1.21-.67.8-1.35 1.61-2 2.4l-1.93 2.53-1 1.27c-.32.43-.61.88-.91 1.32l-1.87 2.66c-.57.92-1.15 1.85-1.76 2.77-2.31 3.74-4.56 7.67-6.66 11.83s-4.12 8.48-6.24 13.14Z"/><path class="cls-8" d="M161 105.05a32.82 32.82 0 0 1 7.18-.66c1.22 0 2.39.1 3.61.16s2.38.28 3.59.43a55.86 55.86 0 0 1 14 4.2 56.93 56.93 0 0 1 12.62 7.87c1 .82 1.88 1.67 2.81 2.52.47.43.94.85 1.38 1.3l1.28 1.41 2.52 2.85c.78 1 1.5 2.05 2.25 3.07a55.2 55.2 0 0 1 10 28.13 50.7 50.7 0 0 1-1.19 14.67 40 40 0 0 1-5.55 13.3l-1.41-6.86c-.5-2.21-1-4.36-1.51-6.47s-1.12-4.15-1.69-6.15c-.35-1-.64-2-1-3l-1-2.89a90.16 90.16 0 0 0-10.8-20.84l-1.65-2.38c-.61-.75-1.22-1.49-1.81-2.26l-.89-1.15c-.31-.37-.65-.72-1-1.09-.64-.73-1.29-1.45-1.92-2.21l-2.06-2.12-1-1.08c-.35-.35-.73-.68-1.09-1l-2.19-2.09c-.76-.66-1.53-1.32-2.29-2-3.12-2.66-6.41-5.31-9.95-7.86s-7.24-5.1-11.24-7.8Z"/><path class="cls-8" d="M218.21 181.18a208.59 208.59 0 0 0 2.29-34 122.5 122.5 0 0 0-4.8-32A108.89 108.89 0 0 0 202 86.14 127.27 127.27 0 0 0 191.83 73c-1.85-2.12-3.79-4.2-5.78-6.27s-4.09-4.09-6.19-6.18a71.09 71.09 0 0 1 30 19.24 79.65 79.65 0 0 1 18.21 31.74 85.66 85.66 0 0 1 2.53 36.34 89 89 0 0 1-4.36 17.45 79.27 79.27 0 0 1-3.51 8.2 56.73 56.73 0 0 1-4.52 7.66Z"/><path d="M219.06 205.16a43.67 43.67 0 0 0 42.77-34.87 7.38 7.38 0 0 0-7.29-8.78h-70.95a7.38 7.38 0 0 0-7.29 8.78 43.67 43.67 0 0 0 42.76 34.87Z" style="fill:#bf2726"/><ellipse class="cls-16" cx="235.9" cy="181.79" rx="19.98" ry="10.85" transform="rotate(-33.9 235.414 180.93)"/><ellipse class="cls-16" cx="240.08" cy="178.98" rx="11.72" ry="6.37" transform="rotate(-16.75 240.098 179)"/><g class="cls-6"><rect class="cls-7" x="90.4" y="267.72" width="91.88" height="67.18" rx="14.97" transform="rotate(-27.56 136.37 301.343)"/></g><rect x="96.82" y="265.64" width="82.57" height="58.2" rx="13.2" transform="rotate(-27.56 138.139 294.752)" style="stroke-width:3.23px;fill-opacity:.54;stroke:#fff;stroke-miterlimit:10;fill:#fff"/><path d="M133.15 302.06 94.79 301c-3.76-7.2-2.09-15.48 3.72-18.52l52.16-27.22c5.81-3 13.56.34 17.32 7.53l-21 32.11a16 16 0 0 1-13.84 7.16Z" style="stroke-width:3.23px;stroke:#fff;stroke-miterlimit:10;fill:none"/><path class="cls-25" d="M225 580.1c8 16.17 4.62 27 5.25 34.86v.33a12.24 12.24 0 0 0 24.43.19c.08-2.18 1.61-11.37 6.24-11.22 2.7.09 4 3.67 4.52 7.24 3.05-14.47-1.46-29.26-11.72-35.62 0-.02-45.65-29.88-28.72 4.22Z"/><path d="M225 580.1c8 16.17 4.62 27 5.25 34.86v.33a12.24 12.24 0 0 0 24.43.19c.08-2.18 1.61-11.37 6.24-11.22 2.7.09 4 3.67 4.52 7.24 3.05-14.47-1.46-29.26-11.72-35.62 0-.02-45.65-29.88-28.72 4.22Z" style="fill:#ce921b;opacity:.5"/><path class="cls-25" d="M221.21 579.75c-18.82-4.84-30.75-16.37-41.5-41.13a96.41 96.41 0 0 1-5.56-57.44c5.25-23.87 35.45-31.05 35.12 13.31-.17 23.44-1.25 45.17 11.23 58.29 11.14 11.72 32.22 12.22 34.5 20.07 1.37 4.94-14.44 11.87-33.79 6.9Z"/><path class="cls-26" d="M197.81 541.29c-4.94-9.76-5.75-23.93-2.89-34.28 3.8-13.74 14.3-16.23 14.26-1.91-.06 19.28.75 36.57 11.32 47.68 2.91 3.06 7.55 5.83 11.25 7.7 10.58 5.36 5.75 9.3-3.57 6.61a50.81 50.81 0 0 1-30.37-25.8Z"/><path class="cls-25" d="M265.49 617.4c.64 4.74 2 7.69 5.15 10.57a14.44 14.44 0 0 0 9.3 3.3 14.9 14.9 0 0 0 14.55-11.74c.12-.55.35-2.45.44-3.32.05-.48.39-3.45.65-4.59 3-13 13.23-18.54 14.39-19.31-12.45.42-41.31 5.23-43.83 5.72.52 4.29-.14 7.3-.71 12.74a43.27 43.27 0 0 0 .06 6.63Z"/><path class="cls-39" d="M274 451.14c9 .83 18.69 7.21 14.26 11.73-2.91 3-5.55.06-14.53-.78s-16.67 2.88-16.29-1.26 7.62-10.53 16.56-9.69ZM259.88 477.7c12.71 2.64 25.56 13.33 18.5 19.07-4.65 3.78-7.95-.81-20.66-3.45s-24.3 1.43-23.08-4.43 12.54-13.84 25.24-11.19ZM248.57 511.8c10.58 2.58 21.05 11.92 15 16.52-4 3-6.64-.9-17.22-3.49s-20.41.51-19.22-4.37 10.87-11.24 21.44-8.66ZM238.82 542.14c6.1 1.89 11.57 8.77 7.55 12.19-2.65 2.24-3.89-.66-10-2.56s-12.23.41-11.11-3.2 7.46-8.32 13.56-6.43Z"/><path class="cls-26" d="M351.38 461.56a14.81 14.81 0 0 1-14.81 14.81c-8.18 0-12.54-6.36-12.54-14.54s3.73-16.09 8.51-16c2.82 0 3.41 5.24 4.65 9.06.85 2.63.29 5 1.5 5.95 3.19 2.55 12.69-3.7 12.69.72Z"/><path class="cls-25" d="M317.09 489.38c.46-3.4 4-27.07 22.28-35.65 2.7-1.27 13.62-6.4 22.29-1.24 3.38 2 7.62 6.31 7.18 10.9-.43 4.43-2.62 9.81-11.06 14.36-6.44 3.46-13.13 2.62-20.14 4.12-4.62 1-8.41 4.64-7.41 9.05 0 0-11.29-.05-13.14-1.54Z"/></g></g></svg>