<svg xmlns="http://www.w3.org/2000/svg" xmlns:xlink="http://www.w3.org/1999/xlink" viewBox="0 0 595.28 841.89"><defs><style>.cls-1,.cls-30,.cls-36,.cls-40{fill:none;}.cls-2{isolation:isolate;}.cls-3{fill:#0a868c;}.cls-4{clip-path:url(#clip-path);}.cls-5{opacity:0.45;}.cls-6,.cls-7{mix-blend-mode:color-dodge;}.cls-6{fill:url(#Градієнт_без_назви_200);}.cls-7{fill:url(#Градієнт_без_назви_6);}.cls-17,.cls-8{fill:#292754;}.cls-10,.cls-15,.cls-8,.cls-9{opacity:0.7;}.cls-18,.cls-9{fill:#8f8faa;}.cls-11,.cls-13,.cls-15,.cls-31{fill:#1f4ca7;}.cls-11,.cls-15{mix-blend-mode:multiply;}.cls-11,.cls-13,.cls-25,.cls-37,.cls-41{opacity:0.5;}.cls-12,.cls-37{fill:#84d7f4;}.cls-14,.cls-35{opacity:0.49;}.cls-16{fill:#464463;}.cls-19{fill:#a52b37;}.cls-20{fill:#308430;}.cls-21,.cls-25,.cls-33,.cls-34,.cls-35,.cls-39{fill:#fff;}.cls-22{fill:#58c658;}.cls-23{fill:#afa875;}.cls-24{fill:#e2db96;}.cls-26{fill:#a54c55;}.cls-27{fill:#da636b;}.cls-28{fill:#ffc931;}.cls-29,.cls-41{fill:#ce921b;}.cls-29{opacity:0.6;}.cls-30{stroke:#c14d4d;stroke-width:2.88px;}.cls-30,.cls-36,.cls-39,.cls-40{stroke-miterlimit:10;}.cls-32{fill:#241035;}.cls-33{opacity:0.32;}.cls-34{opacity:0.52;}.cls-36,.cls-39,.cls-40{stroke:#fff;}.cls-36{stroke-width:3.23px;}.cls-38{fill:#bf2726;}.cls-39{fill-opacity:0.54;}.cls-39,.cls-40{stroke-width:3.23px;}.cls-42{fill:#af6416;}</style><clipPath id="clip-path"><path class="cls-1" d="M-368.57,674.71c3.54-3.84,15.44,1.77,30.14,10.94s48.36,9.12,62.48,18.94a15.67,15.67,0,0,1,6.2,16c-2.21,9.67-10.7,12.83-16.63,14.87-20.91,7.21-56-.4-82.31-29.4-3.89-4.28-11.23-9.75-19.87-17.15Z"/></clipPath><radialGradient id="Градієнт_без_назви_200" cx="272.24" cy="735.23" r="264.68" gradientTransform="translate(27.43 168.61) rotate(-16.43)" gradientUnits="userSpaceOnUse"><stop offset="0" stop-color="#fdeb26"/><stop offset="0.11" stop-color="#fdeb26" stop-opacity="0.86"/><stop offset="0.36" stop-color="#fdeb26" stop-opacity="0.49"/><stop offset="0.68" stop-color="#fdeb26" stop-opacity="0"/></radialGradient><radialGradient id="Градієнт_без_назви_6" cx="142.61" cy="107.6" r="334.98" gradientUnits="userSpaceOnUse"><stop offset="0" stop-color="#fdeb26"/><stop offset="0.24" stop-color="#fdeb26" stop-opacity="0.77"/><stop offset="0.8" stop-color="#fdeb26" stop-opacity="0.2"/><stop offset="0.99" stop-color="#fdeb26" stop-opacity="0"/></radialGradient></defs><g class="cls-2"><g id="Шар_1" data-name="Шар 1"><rect class="cls-3" x="-21.41" y="-16.56" width="632" height="875"/><g class="cls-4"><g class="cls-5"><path class="cls-6" d="M278.16,970C216.94,864.12,199,645,306,583.1s377.54,17.19,438.76,123.06-100,188-160.72,295.34C513.27,1126.62,339.38,1075.87,278.16,970Z"/></g></g><g class="cls-5"><circle class="cls-7" cx="142.61" cy="107.6" r="330.46"/></g><path class="cls-8" d="M277.7,798.58c-56.79,0-110.24-10.73-150.51-30.22-45.82-22.19-72.1-54.48-74-90.92-2-38.87,23.62-75.4,72.2-102.86,43.16-24.4,100.88-39.6,162.53-42.8,8-.42,16.12-.63,24.07-.63,56.79,0,110.24,10.73,150.51,30.23,45.82,22.18,72.1,54.47,74,90.92,2,38.87-23.62,75.4-72.21,102.86-43.16,24.39-100.88,39.59-162.52,42.8C293.75,798.37,285.65,798.58,277.7,798.58Z"/><ellipse class="cls-9" cx="294.84" cy="656" rx="216.78" ry="108.07" transform="translate(-33.68 16.2) rotate(-2.98)"/><g class="cls-10"><path class="cls-11" d="M409.49,610.63l17.82-33.07L412.5,565.88,378,598.45c-20.08.36-51.5-2.06-77.25-1.44C197,599.53,100,633.32,97.25,673.49c-2.22,32.19,52.5,65.94,178.44,65.08,86.63-.6,176.09-45.25,176.07-86.11C451.76,626.82,424.73,615.65,409.49,610.63Z"/></g><path class="cls-12" d="M362.32,641.93h0c-5.73,0-10.38-5.71-10.38-12.76V489.28l20.77-2.35V629.17C372.71,636.22,368.06,641.93,362.32,641.93Z"/><path class="cls-13" d="M356.43,634.41h0c-2.48,0-4.49-2.57-4.49-5.75V488.5l9-.85v141C360.92,631.84,358.91,634.41,356.43,634.41Z"/><path class="cls-12" d="M419.87,581.42h0c-5.73,0-10.38-5.72-10.38-12.77V457.86l20.77-2.36V568.65C430.26,575.7,425.61,581.42,419.87,581.42Z"/><path class="cls-13" d="M414,573.9h0c-2.48,0-4.49-2.58-4.49-5.75V457.08l9-.85V568.15C418.47,571.32,416.46,573.9,414,573.9Z"/><path class="cls-12" d="M184.54,642.55h0c-5.74,0-10.39-5.71-10.39-12.76V489.9l20.77,5.4V629.79C194.92,636.84,190.27,642.55,184.54,642.55Z"/><path class="cls-13" d="M178.64,635.48h0c-2.48,0-4.49-2.58-4.49-5.75V518.66l9-.85V629.73C183.13,632.9,181.12,635.48,178.64,635.48Z"/><g class="cls-14"><path class="cls-15" d="M449.59,436.47s-73.71,62.06-75.4,62.15l-224.4.12c3.4,6.27,15.59,16.17,23.11,16.32,0,0,147.8,1.09,176.46,1.15,22.37,0,35.21,2.37,50.53-13.29C415.43,487,425,476,436.15,464.6,450.45,450,454,443.5,449.59,436.47Z"/></g><rect class="cls-16" x="290.16" y="402.34" width="71.23" height="28.39" rx="5.42" transform="translate(-90.76 742.32) rotate(-90)"/><rect class="cls-17" x="236.55" y="308.9" width="170.42" height="108.95" rx="16.41"/><rect class="cls-18" x="248.6" y="319.45" width="146.31" height="87.64" rx="13.64"/><path class="cls-12" d="M368.29,502.92H147.59a5,5,0,0,1-3.49-8.51L198,441.28a27.8,27.8,0,0,1,19.2-8l230.17-2.39a5,5,0,0,1,3.6,8.44l-48,49A48.58,48.58,0,0,1,368.29,502.92Z"/><path class="cls-13" d="M335.79,470.61H216.44a2.69,2.69,0,0,1-1.88-4.6l29.15-28.73A15,15,0,0,1,254.09,433l124.46-1.29a2.68,2.68,0,0,1,1.95,4.56l-26,26.5A26.26,26.26,0,0,1,335.79,470.61Z"/><ellipse class="cls-13" cx="368.87" cy="480.9" rx="29.81" ry="13.7" transform="translate(-149.26 166.46) rotate(-21.26)"/><path class="cls-19" d="M373.57,486.47c-4.58.76-30.75,5.28-14.63-16.43,12.9-17.37,28.36-10.91,34.39-4.79C402.66,474.71,394.88,483,373.57,486.47Z"/><path class="cls-17" d="M300.17,490.39H190.4a3.57,3.57,0,0,1-2.53-6.08l20.84-21a25.48,25.48,0,0,1,18.08-7.53H336.4a3.57,3.57,0,0,1,2.54,6.07L318.31,482.8A25.44,25.44,0,0,1,300.17,490.39Z"/><path class="cls-20" d="M181.41,681.73l31.82-25.05a26.19,26.19,0,0,1,19.26-5.42l140,16.65a5.11,5.11,0,0,1,2.57,9.09l-35.15,27.8a12.56,12.56,0,0,1-9.47,2.6L183.07,687.78A3.41,3.41,0,0,1,181.41,681.73Z"/><path class="cls-21" d="M373.29,665.8a13.34,13.34,0,0,1,3.34-7.28l1.4-10.78-62.13,51.4,17,7.28,41.7-32.67,0-.12A13.35,13.35,0,0,1,373.29,665.8Z"/><path class="cls-22" d="M321.77,691.61,183.16,673.88a5.11,5.11,0,0,1-2.51-9.09l38.15-30a26.19,26.19,0,0,1,19.26-5.42l140,16.65a5.11,5.11,0,0,1,2.57,9.09L341.3,686.18A26.15,26.15,0,0,1,321.77,691.61Z"/><path class="cls-17" d="M334.66,696.8a15,15,0,0,1,3.9-8.35,1.51,1.51,0,0,0-.9-2.54c-5.19-.68-14.65-1.89-14.74-1.9L183.4,666.16a11.2,11.2,0,0,0-12.53,9.69h0a11.18,11.18,0,0,0,9.68,12.52l139.53,17.85L333,707.86a2.52,2.52,0,0,0,2.65-3.46A14.93,14.93,0,0,1,334.66,696.8Z"/><ellipse class="cls-16" cx="325.49" cy="438.38" rx="32.46" ry="10.72"/><ellipse class="cls-17" cx="325.92" cy="436.83" rx="21.77" ry="7.19"/><polygon class="cls-23" points="347.48 622.08 347.48 622.08 302 666.21 310.18 674.64 347.01 638.91 347.48 622.08"/><polygon class="cls-23" points="175.04 664.78 209.35 631.49 201.16 623.05 164.33 658.79 164.16 665.12 175.04 664.78"/><rect class="cls-24" x="164.14" y="660.84" width="146.24" height="11.75" transform="translate(18.8 -6.4) rotate(1.61)"/><path class="cls-25" d="M305.35,390.36,287.57,389l81.62-69.56h11.33a15.15,15.15,0,0,1,3.09.2,12.12,12.12,0,0,1,3.3,1Z"/><polygon class="cls-25" points="313.46 401.83 394.92 333.08 394.92 371.77 353.41 407.09 320.42 406.98 313.46 401.83"/><path class="cls-26" d="M180.67,654.37l25.47-24.5a22.93,22.93,0,0,1,16.35-6.41l123.8,2.38a4.49,4.49,0,0,1,3,7.72l-30.07,29.06a5.3,5.3,0,0,1-3.81,1.47l-132.73-4.42A3.08,3.08,0,0,1,180.67,654.37Z"/><polygon class="cls-21" points="348.53 630.41 315.51 663.17 299.9 658.57 348.82 607.38 348.53 630.41"/><path class="cls-27" d="M305.07,650.4,182.41,647a4.49,4.49,0,0,1-3-7.73l30.72-29.56a23,23,0,0,1,16.36-6.41l123.8,2.38a4.49,4.49,0,0,1,3,7.72L321.67,644A23,23,0,0,1,305.07,650.4Z"/><path class="cls-19" d="M315.73,654.37a13.17,13.17,0,0,1,2.68-7.63,1.33,1.33,0,0,0-1-2.15l-13.05-.38-123.47-3.47a9.84,9.84,0,0,0-10.11,9.56h0a9.83,9.83,0,0,0,9.55,10.1l123.48,3.47,11.43.31a2.21,2.21,0,0,0,2-3.25A13.1,13.1,0,0,1,315.73,654.37Z"/><path class="cls-28" d="M279.64,398.32c-3.59-1.06-5.77,1.56-15,6.35-9.46,4.92-12.59,5-12.67,6.91-.16,3.45,9.58,8.52,18.61,7,6.94-1.17,15.52-6.58,15-12.84A8.89,8.89,0,0,0,279.64,398.32Z"/><path class="cls-28" d="M310.13,384.72c2.18-2.5,5.05-1.58,14.22-2.4,9.4-.83,11.76-2.27,12.75-.87,1.76,2.5-3.1,10.92-10.56,14.09-5.74,2.44-14.72,2.49-17.34-2.42A7.88,7.88,0,0,1,310.13,384.72Z"/><path class="cls-29" d="M322,386.56c.93-1.16,2.23-.81,6.32-1.35s5.21-1.25,5.68-.64c.84,1.08-1.17,4.95-4.45,6.51-2.52,1.2-6.53,1.4-7.8-.75A3.53,3.53,0,0,1,322,386.56Z"/><path class="cls-28" d="M297.3,383.37c2.88-.57,16.78-3.34,27.73,5.29,8.85,7,10.74,17.43,11.88,23.77,2.39,13.24-2,17.79-1.32,31.69.61,13,4.89,18.68,8.59,30,8.47,26,3.6,50.31,2.31,56.78-2.27,11.33-12.55,52.29-47.87,67.68-5.66,2.47-23.4,10.2-42.59,3.3-23.09-8.29-31.72-31.81-34.33-38.95-11-29.89.55-58.29,4-66.69C237,468.35,250.17,470,258,441.81c4.52-16.25,2.23-24.3,10.89-37.31C271.88,400,280.79,386.66,297.3,383.37Z"/><path class="cls-29" d="M346.46,480.18c-.57-2.34-2-6.73-3.47-10.77a3.74,3.74,0,0,0-7-.22l-6,17.25c-1.44,3.37,1.88,7.9,4.16,12.2,7.74,14.57,2.14,37.73.06,50.47,0,.21-.07.41-.11.61a3.75,3.75,0,0,0,7.16,2.08c.25-.61.5-1.22.74-1.84C353.47,520.86,349.34,491.91,346.46,480.18Z"/><path class="cls-29" d="M269.34,407c-1.65-.57-2.72.6-7.12,2.64s-6,2.05-6.05,2.95c-.14,1.6,4.29,4.17,8.52,3.66,3.26-.4,7.37-2.73,7.28-5.66A4.14,4.14,0,0,0,269.34,407Z"/><circle class="cls-30" cx="290.64" cy="412.79" r="16.64"/><circle class="cls-31" cx="293.65" cy="412.02" r="12.26"/><circle class="cls-32" cx="297.72" cy="408.29" r="5.26"/><circle class="cls-33" cx="286.42" cy="412.14" r="10.49"/><circle class="cls-34" cx="284.64" cy="414.31" r="7.45"/><circle class="cls-34" cx="282.99" cy="415.37" r="3.94"/><circle class="cls-30" cx="326.85" cy="405.36" r="16.64"/><circle class="cls-31" cx="329.75" cy="403.72" r="12.26"/><circle class="cls-32" cx="334.51" cy="400.38" r="5.26"/><circle class="cls-21" cx="338.26" cy="405.01" r="2.19"/><circle class="cls-21" cx="302.15" cy="413.31" r="2.19"/><circle class="cls-33" cx="323.3" cy="403.68" r="11.08"/><circle class="cls-34" cx="320.84" cy="406.89" r="7.45"/><circle class="cls-34" cx="319.2" cy="407.95" r="3.94"/><path class="cls-30" d="M311.9,398.73a4.78,4.78,0,0,0-9.24,2.46"/><path class="cls-25" d="M391.22,468.81c.28,4-4.27,6.26-10.17,6.68s-10.9-1.15-11.18-5.17,4.45-8.63,10.34-9.05S390.93,464.8,391.22,468.81Z"/><path class="cls-35" d="M387.18,466.55c.16,1.68-1.55,2.44-4.25,2.71s-5.36-.07-5.53-1.74,1.84-3.92,4.54-4.19S387,464.87,387.18,466.55Z"/><g class="cls-10"><rect class="cls-11" x="393.72" y="139.04" width="81.76" height="108.93" rx="18.99"/></g><g class="cls-10"><rect class="cls-36" x="393.72" y="139.04" width="81.76" height="108.93" rx="18.99"/></g><rect class="cls-37" x="406.42" y="168.47" width="56.37" height="11.56" rx="5.78"/><rect class="cls-37" x="406.42" y="187.72" width="56.37" height="11.56" rx="5.78"/><rect class="cls-37" x="406.42" y="206.98" width="56.37" height="11.56" rx="5.78"/><g class="cls-10"><rect class="cls-11" x="97.25" y="217.42" width="173.64" height="9.51" rx="4.76"/></g><rect class="cls-12" x="111.43" y="210.19" width="173.64" height="9.51" rx="4.76"/><g class="cls-10"><path class="cls-11" d="M184.72,209.37c-22.33-3.14-38.56-23.42-37.05-34.1s32.61-6.89,55.14-7.48c27.66-.73,26.54,17.26,25,27.93S207,212.51,184.72,209.37Z"/></g><g class="cls-10"><path class="cls-11" d="M248.06,103.16a51.08,51.08,0,0,0-14.55,1,53.74,53.74,0,0,0-14,5.13,56.37,56.37,0,0,0-21.75,20.38,59.91,59.91,0,0,0-3,5.52c0-.46,0-.91,0-1.37,0-1.49,0-3,0-4.47s-.13-3-.26-4.48-.26-3-.48-4.47l-.31-2.22-.39-2.22c-.53-3-1.28-5.87-2.09-8.77A82.92,82.92,0,0,0,174,76a78.34,78.34,0,0,0-28.52-20.43c1.11.94,2.24,1.84,3.33,2.79l1.65,1.4,1.6,1.43c2.12,1.94,4.19,3.9,6.17,5.92A113.44,113.44,0,0,1,169,80a99.68,99.68,0,0,1,14.59,29.56c.36,1.32.77,2.64,1.1,4s.66,2.67.92,4l.42,2,.35,2c.26,1.36.41,2.73.62,4.1a121.33,121.33,0,0,1,1,16.21q-.78-1.51-1.65-3A56.44,56.44,0,0,0,151,113a55,55,0,0,0-14.4-1.55,48.77,48.77,0,0,0-7.14.7,33.38,33.38,0,0,0-6.91,1.89c4.46,1.74,8.6,3.37,12.6,5.16s7.78,3.64,11.38,5.64a102.56,102.56,0,0,1,10.22,6.47,86,86,0,0,1,9,7.52,90.1,90.1,0,0,1,14.6,18.64,106.59,106.59,0,0,1,5.19,9.92c-.52,2.95-1.11,5.9-1.79,8.85.75-1.25,1.41-2.55,2.07-3.85.34-.72.67-1.45,1-2.17,1.54,3.48,3,7.14,4.49,11A40.89,40.89,0,0,0,194,167.11c0-.38,0-.76,0-1.13,1.05-2.26,2.1-4.46,3.19-6.6,2-3.89,4-7.58,6.22-11.08a103,103,0,0,1,7-9.87,84.63,84.63,0,0,1,8-8.6,88.14,88.14,0,0,1,9.11-7.38,90.28,90.28,0,0,1,10.25-6.25c7.25-3.83,15.23-6.78,24.29-9.72A40.82,40.82,0,0,0,248.06,103.16Z"/></g><path class="cls-12" d="M223.18,179.54a36.39,36.39,0,0,1-1.63-7.47c-.19-1.28-.22-2.54-.32-3.82s0-2.55,0-3.84a60.7,60.7,0,0,1,2.46-15.27,62,62,0,0,1,6.43-14.44c.73-1.12,1.48-2.22,2.24-3.33.38-.55.75-1.11,1.16-1.64l1.28-1.56,2.61-3.07c.94-1,1.93-1.88,2.89-2.82a59.35,59.35,0,0,1,28-14.84,55.14,55.14,0,0,1,15.54-1.12,43.59,43.59,0,0,1,14.87,3.56l-7.05,2.37c-1.13.44-2.26.77-3.36,1.22-.56.22-1.11.39-1.65.6l-1.63.64c-2.16.82-4.25,1.75-6.3,2.64-1,.5-2,1-3,1.43l-2.94,1.48a93.06,93.06,0,0,0-20.64,14.6L249.77,137c-.71.76-1.41,1.54-2.13,2.29l-1.09,1.12c-.35.4-.67.81-1,1.21-.67.8-1.35,1.61-2,2.4l-1.93,2.53-1,1.27c-.32.43-.61.88-.91,1.32l-1.87,2.66c-.57.92-1.15,1.85-1.76,2.77-2.31,3.74-4.56,7.67-6.66,11.83S225.3,174.88,223.18,179.54Z"/><path class="cls-12" d="M161,105.05a32.82,32.82,0,0,1,7.18-.66c1.22,0,2.39.1,3.61.16s2.38.28,3.59.43a55.86,55.86,0,0,1,14,4.2A56.93,56.93,0,0,1,202,117.05c1,.82,1.88,1.67,2.81,2.52.47.43.94.85,1.38,1.3l1.28,1.41,2.52,2.85c.78,1,1.5,2.05,2.25,3.07a55.2,55.2,0,0,1,10,28.13A50.7,50.7,0,0,1,221.05,171a40,40,0,0,1-5.55,13.3l-1.41-6.86c-.5-2.21-1-4.36-1.51-6.47s-1.12-4.15-1.69-6.15c-.35-1-.64-2-1-3l-1-2.89a90.16,90.16,0,0,0-10.8-20.84l-1.65-2.38c-.61-.75-1.22-1.49-1.81-2.26l-.89-1.15c-.31-.37-.65-.72-1-1.09-.64-.73-1.29-1.45-1.92-2.21l-2.06-2.12-1-1.08c-.35-.35-.73-.68-1.09-1l-2.19-2.09c-.76-.66-1.53-1.32-2.29-2-3.12-2.66-6.41-5.31-9.95-7.86S165,107.75,161,105.05Z"/><path class="cls-12" d="M218.21,181.18a208.59,208.59,0,0,0,2.29-34,122.5,122.5,0,0,0-4.8-32A108.89,108.89,0,0,0,202,86.14,127.27,127.27,0,0,0,191.83,73c-1.85-2.12-3.79-4.2-5.78-6.27s-4.09-4.09-6.19-6.18a71.09,71.09,0,0,1,30,19.24,79.65,79.65,0,0,1,18.21,31.74,85.66,85.66,0,0,1,2.53,36.34,89,89,0,0,1-4.36,17.45,79.27,79.27,0,0,1-3.51,8.2A56.73,56.73,0,0,1,218.21,181.18Z"/><path class="cls-38" d="M219.06,205.16a43.67,43.67,0,0,0,42.77-34.87,7.38,7.38,0,0,0-7.29-8.78H183.59a7.38,7.38,0,0,0-7.29,8.78A43.67,43.67,0,0,0,219.06,205.16Z"/><ellipse class="cls-25" cx="235.9" cy="181.79" rx="19.98" ry="10.85" transform="matrix(0.83, -0.56, 0.56, 0.83, -61.3, 162.59)"/><ellipse class="cls-25" cx="240.08" cy="178.98" rx="11.72" ry="6.37" transform="translate(-41.4 76.79) rotate(-16.75)"/><g class="cls-10"><rect class="cls-11" x="90.4" y="267.72" width="91.88" height="67.18" rx="14.97" transform="translate(-123.95 97.29) rotate(-27.56)"/></g><rect class="cls-39" x="96.82" y="265.64" width="82.57" height="58.2" rx="13.2" transform="translate(-120.7 97.36) rotate(-27.56)"/><path class="cls-40" d="M133.15,302.06,94.79,301c-3.76-7.2-2.09-15.48,3.72-18.52l52.16-27.22c5.81-3,13.56.34,17.32,7.53l-21,32.11A16,16,0,0,1,133.15,302.06Z"/><path class="cls-28" d="M225,580.1c8,16.17,4.62,27,5.25,34.86,0,.11,0,.22,0,.33a12.24,12.24,0,0,0,24.43.19v0c.08-2.18,1.61-11.37,6.24-11.22,2.7.09,4,3.67,4.52,7.24,3.05-14.47-1.46-29.26-11.72-35.62C253.72,575.86,208.07,546,225,580.1Z"/><path class="cls-41" d="M225,580.1c8,16.17,4.62,27,5.25,34.86,0,.11,0,.22,0,.33a12.24,12.24,0,0,0,24.43.19v0c.08-2.18,1.61-11.37,6.24-11.22,2.7.09,4,3.67,4.52,7.24,3.05-14.47-1.46-29.26-11.72-35.62C253.72,575.86,208.07,546,225,580.1Z"/><path class="cls-28" d="M221.21,579.75c-18.82-4.84-30.75-16.37-41.5-41.13a96.41,96.41,0,0,1-5.56-57.44c5.25-23.87,35.45-31.05,35.12,13.31-.17,23.44-1.25,45.17,11.23,58.29C231.64,564.5,252.72,565,255,572.85,256.37,577.79,240.56,584.72,221.21,579.75Z"/><path class="cls-29" d="M197.81,541.29c-4.94-9.76-5.75-23.93-2.89-34.28,3.8-13.74,14.3-16.23,14.26-1.91-.06,19.28.75,36.57,11.32,47.68,2.91,3.06,7.55,5.83,11.25,7.7,10.58,5.36,5.75,9.3-3.57,6.61A50.81,50.81,0,0,1,197.81,541.29Z"/><path class="cls-28" d="M265.49,617.4c.64,4.74,2,7.69,5.15,10.57a14.44,14.44,0,0,0,9.3,3.3,14.9,14.9,0,0,0,14.55-11.74c.12-.55.35-2.45.44-3.32.05-.48.39-3.45.65-4.59,3-13,13.23-18.54,14.39-19.31-12.45.42-41.31,5.23-43.83,5.72.52,4.29-.14,7.3-.71,12.74A43.27,43.27,0,0,0,265.49,617.4Z"/><path class="cls-42" d="M274,451.14c9,.83,18.69,7.21,14.26,11.73-2.91,3-5.55.06-14.53-.78s-16.67,2.88-16.29-1.26S265.06,450.3,274,451.14Z"/><path class="cls-42" d="M259.88,477.7c12.71,2.64,25.56,13.33,18.5,19.07-4.65,3.78-7.95-.81-20.66-3.45s-24.3,1.43-23.08-4.43S247.18,475.05,259.88,477.7Z"/><path class="cls-42" d="M248.57,511.8c10.58,2.58,21.05,11.92,15,16.52-4,3-6.64-.9-17.22-3.49s-20.41.51-19.22-4.37S238,509.22,248.57,511.8Z"/><path class="cls-42" d="M238.82,542.14c6.1,1.89,11.57,8.77,7.55,12.19-2.65,2.24-3.89-.66-10-2.56s-12.23.41-11.11-3.2S232.72,540.25,238.82,542.14Z"/><path class="cls-29" d="M351.38,461.56a14.81,14.81,0,0,1-14.81,14.81c-8.18,0-12.54-6.36-12.54-14.54s3.73-16.09,8.51-16c2.82,0,3.41,5.24,4.65,9.06.85,2.63.29,5,1.5,5.95C341.88,463.39,351.38,457.14,351.38,461.56Z"/><path class="cls-28" d="M317.09,489.38c.46-3.4,4-27.07,22.28-35.65,2.7-1.27,13.62-6.4,22.29-1.24,3.38,2,7.62,6.31,7.18,10.9-.43,4.43-2.62,9.81-11.06,14.36-6.44,3.46-13.13,2.62-20.14,4.12-4.62,1-8.41,4.64-7.41,9.05C330.23,490.92,318.94,490.87,317.09,489.38Z"/></g></g></svg>