<svg xmlns="http://www.w3.org/2000/svg" viewBox="0 0 595.28 841.89"><defs><clipPath id="clip-path"><path class="cls-1" d="m371.34 643.09-32.88-3.66 8.36-8.1a4.25 4.25 0 0 0-2.35-7.26l.19-8.72 3.26-3.15a4.26 4.26 0 0 0-2.87-7.32l-117.25-2.25a21.77 21.77 0 0 0-15.49 6.07l-31 28a4.17 4.17 0 0 0-1.27 2.47 9.34 9.34 0 0 0-5 8 9.83 9.83 0 0 0 .16 2l-6.26 6.08-.31 11.12 8.37.24a10.61 10.61 0 0 0 7.3 16.66s141.16 18.1 145.57 18.64c3.43.36 5.64-.85 8-2.74l33.29-26.33a4.84 4.84 0 0 0-2.43-8.61l-1-.12a8.1 8.1 0 0 1-.27-3.16 12.73 12.73 0 0 1 3.3-6.83l3-2.39a4.85 4.85 0 0 0-2.42-8.64z"/></clipPath><clipPath id="clip-path-2"><path class="cls-1" d="M298.43 383.12c2.88-.57 16.79-3.34 27.73 5.28 8.85 7 10.74 17.44 11.89 23.77 2.39 13.25-2 17.8-1.32 31.7.6 13 4.88 18.68 8.58 30 8.48 26 3.61 50.31 2.31 56.78-2.27 11.35-12.55 52.35-47.87 67.72-5.65 2.47-23.4 10.2-42.58 3.3-23.09-8.29-31.72-31.81-34.34-38.95-11-29.89.55-58.29 4-66.69 11.33-27.93 24.51-26.29 32.36-54.47 4.52-16.25 2.22-24.3 10.89-37.31 2.92-4.46 11.85-17.84 28.35-21.13z"/></clipPath><style>.cls-1,.cls-29{fill:none}.cls-13{fill:#292754}.cls-35{fill:#0e2549}.cls-10,.cls-16,.cls-37{opacity:.5}.cls-37,.cls-9{fill:#84d7f4}.cls-10,.cls-30{fill:#1f4ca7}.cls-12{fill:#464463}.cls-15{fill:#a52b37}.cls-16,.cls-19,.cls-32,.cls-33{fill:#fff}.cls-21{fill:#afa875}.cls-26{fill:#ffc931}.cls-27{fill:#ce921b;opacity:.6}.cls-29{stroke:#c14d4d;stroke-width:2.88px;stroke-miterlimit:10}.cls-31{fill:#241035}.cls-32{opacity:.32}.cls-33{opacity:.52}.cls-35{opacity:.6}.cls-42{fill:#af6416}</style></defs><g style="isolation:isolate"><g id="Шар_1" data-name="Шар 1"><path style="fill:#0a868c" d="M-20.78-16.55h632v875h-632z"/><path d="M278.83 798.33c-56.78 0-110.23-10.73-150.5-30.22-45.83-22.19-72.11-54.48-74-90.92-2-38.87 23.62-75.4 72.2-102.86 43.16-24.4 100.88-39.6 162.53-42.8 8-.42 16.11-.63 24.07-.63 56.78 0 110.23 10.73 150.5 30.23 45.83 22.18 72.11 54.47 74 90.92 2 38.87-23.62 75.4-72.2 102.85-43.16 24.4-100.88 39.6-162.53 42.81-8.02.41-16.11.62-24.07.62z" style="opacity:.7;fill:#292754"/><ellipse cx="295.98" cy="655.75" rx="216.78" ry="108.07" transform="rotate(-2.98 295.727 655.157)" style="fill:#8f8faa;opacity:.7"/><g style="opacity:.3"><path d="M410.58 610.93v-.94l17.82-33.07-14.81-11.67-32.39 30.59c-27.23-10.63-62.56-12.07-99.65-11.37-87.7 1.68-157 35.69-156.13 81.61s70.37 79 158.1 79.07c89.65.09 160.39-39.21 159.52-85.13-.39-18.63-12.42-35.61-32.46-49.09z" style="fill:#181047"/><path d="M410.58 610.93v-.94l17.82-33.07-14.81-11.67-32.39 30.59c-27.23-10.63-62.56-12.07-99.65-11.37-87.7 1.68-157 35.69-156.13 81.61s70.37 79 158.1 79.07c89.65.09 160.39-39.21 159.52-85.13-.39-18.63-12.42-35.61-32.46-49.09z" style="opacity:.5;mix-blend-mode:multiply;fill:#0e2549"/></g><path class="cls-9" d="M363.46 641.68c-5.74 0-10.39-5.71-10.39-12.76V489l20.78-2.35v142.27c0 7.08-4.65 12.76-10.39 12.76z"/><path class="cls-10" d="M357.56 634.16c-2.48 0-4.49-2.57-4.49-5.75V488.25l9-.85v141c-.02 3.19-2.07 5.76-4.51 5.76z"/><path class="cls-9" d="M421 581.17c-5.74 0-10.39-5.72-10.39-12.77V457.61l20.78-2.36V568.4c.01 7.05-4.64 12.77-10.39 12.77z"/><path class="cls-10" d="M415.11 573.65c-2.48 0-4.49-2.58-4.49-5.76V456.83l9-.85v111.91c-.02 3.18-2.03 5.76-4.51 5.76z"/><path class="cls-9" d="M185.67 640.3c-5.74 0-10.39-5.71-10.39-12.76V487.65l20.78 5.4v134.49c0 7.05-4.65 12.76-10.39 12.76z"/><path class="cls-10" d="M179.77 633.23c-2.48 0-4.49-2.58-4.49-5.76V516.41l9-.85v111.91c-.02 3.18-2.03 5.76-4.51 5.76z"/><path d="M450.73 436.22s-73.71 62.06-75.4 62.15l-224.4.11c3.39 6.28 15.59 16.18 23.11 16.33 0 0 147.8 1.08 176.46 1.15 22.36 0 35.21 2.37 50.53-13.29 15.53-15.89 25.08-26.92 36.25-38.33 14.3-14.59 17.82-21.09 13.45-28.12z" style="fill:#37115b;opacity:.5"/><rect class="cls-12" x="291.3" y="402.09" width="71.23" height="28.39" rx="5.42" transform="rotate(-90 326.91 416.29)"/><rect class="cls-13" x="237.68" y="308.65" width="170.42" height="108.95" rx="16.41"/><rect x="249.74" y="319.2" width="146.31" height="87.64" rx="13.64" style="fill:#8f8faa"/><path class="cls-9" d="M369.43 502.67h-220.7a5 5 0 0 1-3.49-8.51L199.15 441a27.76 27.76 0 0 1 19.19-8l230.18-2.39a5 5 0 0 1 3.6 8.44l-48 49a48.59 48.59 0 0 1-34.69 14.62z"/><path class="cls-10" d="M336.92 470.36H217.58a2.69 2.69 0 0 1-1.89-4.6L244.85 437a15 15 0 0 1 10.38-4.32l124.46-1.3a2.69 2.69 0 0 1 1.95 4.57l-26 26.5a26.27 26.27 0 0 1-18.72 7.91z"/><ellipse class="cls-10" cx="370.01" cy="480.65" rx="29.81" ry="13.7" transform="rotate(-21.26 369.972 480.607)"/><path class="cls-15" d="M374.71 486.22c-4.59.76-30.76 5.28-14.64-16.43 12.9-17.37 28.36-10.91 34.39-4.8 9.34 9.47 1.54 17.71-19.75 21.23z"/><path class="cls-13" d="M301.31 490.14H191.54a3.57 3.57 0 0 1-2.53-6.08l20.84-21a25.46 25.46 0 0 1 18.07-7.53h109.62a3.57 3.57 0 0 1 2.54 6.07l-20.63 20.93a25.46 25.46 0 0 1-18.14 7.61z"/><ellipse class="cls-12" cx="326.62" cy="438.13" rx="32.46" ry="10.72"/><ellipse class="cls-13" cx="327.05" cy="436.57" rx="21.77" ry="7.19"/><path class="cls-16" d="m306.48 390.11-17.77-1.35 81.62-69.56h11.32a15.15 15.15 0 0 1 3.09.2 12.29 12.29 0 0 1 3.31 1zM314.6 401.58l81.45-68.75v38.69l-41.51 35.32-32.99-.11-6.95-5.15z"/><g style="clip-path:url(#clip-path)"><path d="m187.6 677.47 30.14-23.72a24.75 24.75 0 0 1 18.26-5.13l132.61 15.77A4.84 4.84 0 0 1 371 673l-33.29 26.33a11.89 11.89 0 0 1-9 2.47l-139.54-18.6a3.23 3.23 0 0 1-1.57-5.73z" style="fill:#308430"/><path class="cls-19" d="M367.3 661.1a12.75 12.75 0 0 1 3.31-6.83l1.54-10.17-59.84 47.46 18.89 8 38.46-30.08c-1.08-2.23-2.75-5.74-2.36-8.38z"/><path d="M317.87 686.48 186.6 669.69a4.84 4.84 0 0 1-2.38-8.61l36.13-28.45a24.79 24.79 0 0 1 18.24-5.13l132.61 15.77a4.84 4.84 0 0 1 2.43 8.61l-37.25 29.46a24.82 24.82 0 0 1-18.51 5.14z" style="fill:#58c658"/><path class="cls-13" d="M330.08 691.39a14.28 14.28 0 0 1 3.7-7.9 1.43 1.43 0 0 0-.85-2.41l-14-1.8-132.15-16.9a10.61 10.61 0 0 0-11.78 9.17 10.61 10.61 0 0 0 9.18 11.87l132.15 16.9 12.23 1.55a2.38 2.38 0 0 0 2.44-3.27 14.3 14.3 0 0 1-.92-7.21z"/><path class="cls-21" d="m342.23 620.63-43.08 41.79 7.75 7.99 34.39-34.26.94-15.52zM178.91 661.07l32.49-31.53-7.75-7.99-34.89 33.85-.16 5.99 10.31-.32z"/><path transform="rotate(1.61 237.45 662.236)" style="fill:#e2db96" d="M168.58 657.34h138.5v11.13h-138.5z"/><path d="M186.94 651.21 211.06 628a21.73 21.73 0 0 1 15.49-6.07l117.25 2.25a4.25 4.25 0 0 1 2.87 7.31L318.19 659a4.92 4.92 0 0 1-3.61 1.39l-125.71-4.18a2.92 2.92 0 0 1-1.93-5z" style="fill:#a54c55"/><path class="cls-19" d="m344.23 628.68-31.54 30.75-14.76-4.49 46.77-48.07-.47 21.81z"/><path d="M302.06 647.45 184 644.19a4.26 4.26 0 0 1-2.83-7.32l31-28a21.71 21.71 0 0 1 15.5-6.07l117.24 2.25a4.25 4.25 0 0 1 2.88 7.31l-30 29a21.68 21.68 0 0 1-15.73 6.09z" style="fill:#da636b"/><path class="cls-15" d="M312.15 651.21a12.54 12.54 0 0 1 2.55-7.21 1.26 1.26 0 0 0-1-2l-12.35-.36-116.95-3.28a9.3 9.3 0 0 0-9.57 9.05 9.32 9.32 0 0 0 9 9.57l116.94 3.28 10.83.29a2.09 2.09 0 0 0 1.91-3.08 12.51 12.51 0 0 1-1.36-6.26z"/><path d="m325.93 604-40.68 37.11s-1.63 2.63-1.63 8.29c0 7.6 4.38 10.1 4.38 10.1l-.4 10.34-8.68 4.29s-1.84 2-2.61 9a20.51 20.51 0 0 0 2.61 12.87l-113.51-14.91V638.3l42.15-36.77z" style="fill:#2b0e3d;opacity:.4"/></g><path class="cls-26" d="M280.77 398.07c-3.59-1.06-5.77 1.56-15 6.35-9.46 4.92-12.58 5-12.67 6.91-.15 3.45 9.59 8.52 18.61 7 6.95-1.16 15.52-6.57 15-12.83a8.88 8.88 0 0 0-5.94-7.43zM311.26 384.47c2.18-2.5 5.05-1.58 14.22-2.4 9.41-.83 11.77-2.27 12.75-.87 1.76 2.5-3.1 10.92-10.55 14.09-5.74 2.44-14.72 2.49-17.34-2.42a7.88 7.88 0 0 1 .92-8.4z"/><path class="cls-27" d="M323.16 386.31c.93-1.16 2.23-.81 6.31-1.35s5.22-1.25 5.69-.64c.83 1.08-1.18 4.94-4.45 6.51-2.52 1.2-6.53 1.39-7.8-.75a3.51 3.51 0 0 1 .25-3.77z"/><path class="cls-26" d="M298.43 383.12c2.88-.57 16.79-3.34 27.73 5.28 8.85 7 10.74 17.44 11.89 23.77 2.39 13.25-2 17.8-1.32 31.7.6 13 4.88 18.68 8.58 30 8.48 26 3.61 50.31 2.31 56.78-2.27 11.35-12.55 52.35-47.87 67.72-5.65 2.47-23.4 10.2-42.58 3.3-23.09-8.29-31.72-31.81-34.34-38.95-11-29.89.55-58.29 4-66.69 11.33-27.93 24.51-26.29 32.36-54.47 4.52-16.25 2.22-24.3 10.89-37.31 2.92-4.46 11.85-17.84 28.35-21.13z"/><path class="cls-27" d="M348.39 483.28c-.47-2.36-1.76-6.81-3-10.91a3.75 3.75 0 0 0-7-.52l-6.7 17c-1.58 3.31 1.53 8 3.63 12.37 7.1 14.89.5 37.79-2.14 50.43l-.12.61a3.74 3.74 0 0 0 7.06 2.38c.27-.59.55-1.19.81-1.8 12.69-28.61 9.83-57.71 7.46-69.56z" style="clip-path:url(#clip-path-2)"/><path class="cls-27" d="M270.48 406.79c-1.65-.57-2.72.6-7.12 2.64s-6 2.05-6.05 2.95c-.15 1.6 4.28 4.17 8.52 3.66 3.26-.4 7.37-2.73 7.28-5.66a4.18 4.18 0 0 0-2.63-3.59z"/><circle class="cls-29" cx="294.35" cy="417" r="16.64"/><circle class="cls-30" cx="297.23" cy="415.84" r="12.26"/><circle class="cls-31" cx="300.77" cy="411.61" r="5.26"/><circle class="cls-32" cx="290.08" cy="416.93" r="10.49"/><circle class="cls-33" cx="288.61" cy="419.31" r="7.45"/><circle class="cls-33" cx="287.12" cy="420.58" r="3.94"/><circle class="cls-29" cx="329.25" cy="404.83" r="16.64"/><circle class="cls-30" cx="331.91" cy="402.82" r="12.26"/><circle class="cls-31" cx="336.19" cy="398.88" r="5.26"/><circle class="cls-19" cx="340.51" cy="402.96" r="2.19"/><circle class="cls-19" cx="305.83" cy="415.99" r="2.19"/><circle class="cls-32" cx="325.51" cy="403.64" r="11.08"/><circle class="cls-33" cx="323.5" cy="407.14" r="7.45"/><circle class="cls-33" cx="322.01" cy="408.41" r="3.94"/><path class="cls-29" d="M313.55 400.25a4.78 4.78 0 0 0-8.83 3.67"/><path class="cls-16" d="M392.35 468.56c.29 4-4.27 6.26-10.16 6.68s-10.9-1.15-11.18-5.17 4.44-8.63 10.34-9.05 10.72 3.53 11 7.54z"/><path d="M388.31 466.3c.17 1.68-1.54 2.44-4.24 2.71s-5.37-.07-5.53-1.75 1.84-3.91 4.53-4.18 5.08 1.54 5.24 3.22z" style="opacity:.49;fill:#fff"/><rect class="cls-35" x="394.86" y="138.79" width="81.76" height="108.93" rx="18.99"/><rect x="394.86" y="138.79" width="81.76" height="108.93" rx="18.99" style="stroke-width:3.23px;stroke:#fff;stroke-miterlimit:10;fill:none"/><rect class="cls-37" x="407.55" y="168.22" width="56.37" height="11.56" rx="5.78"/><rect class="cls-37" x="407.55" y="187.47" width="56.37" height="11.56" rx="5.78"/><rect class="cls-37" x="407.55" y="206.73" width="56.37" height="11.56" rx="5.78"/><rect class="cls-35" x="98.39" y="217.17" width="173.64" height="9.51" rx="4.76"/><rect class="cls-9" x="112.57" y="209.94" width="173.64" height="9.51" rx="4.76"/><path class="cls-35" d="M185.85 209.12c-22.32-3.14-38.55-23.42-37-34.1s32.61-6.89 55.15-7.48c27.66-.73 26.54 17.26 25 27.93s-20.83 16.79-43.15 13.65z"/><path class="cls-35" d="M249.2 102.9a51.42 51.42 0 0 0-14.55 1 53.38 53.38 0 0 0-14 5.13 56.37 56.37 0 0 0-21.75 20.38 59.91 59.91 0 0 0-3 5.52v-1.37c.06-1.49 0-3 0-4.47s-.13-3-.25-4.48-.26-3-.49-4.47l-.31-2.23-.38-2.21c-.53-3-1.28-5.88-2.09-8.77A82.8 82.8 0 0 0 175 75.69a78.26 78.26 0 0 0-28.52-20.43c1.12.94 2.25 1.84 3.34 2.79l1.64 1.4 1.61 1.43c2.12 1.94 4.18 3.89 6.16 5.92a112.5 112.5 0 0 1 10.83 12.87 99.92 99.92 0 0 1 14.59 29.56c.36 1.32.77 2.64 1.09 4s.67 2.67.92 4l.43 2 .35 2c.25 1.36.41 2.73.61 4.1a119.69 119.69 0 0 1 1 16.21q-.78-1.51-1.65-3a56.44 56.44 0 0 0-35.28-26 55.43 55.43 0 0 0-14.4-1.56 51.54 51.54 0 0 0-7.14.7 33.41 33.41 0 0 0-6.91 1.9c4.45 1.74 8.6 3.37 12.59 5.16s7.78 3.63 11.39 5.64a103.56 103.56 0 0 1 10.26 6.62 84.94 84.94 0 0 1 9 7.52 87 87 0 0 1 7.84 8.73 89 89 0 0 1 6.77 9.91 111.62 111.62 0 0 1 5.19 9.92c-.52 2.95-1.12 5.89-1.79 8.85.75-1.25 1.4-2.55 2.06-3.86.35-.71.68-1.44 1-2.17 1.54 3.49 3 7.15 4.5 11a40.89 40.89 0 0 0 2.6-14.08v-1.13c1-2.26 2.1-4.45 3.19-6.59 2-3.89 4-7.58 6.22-11.08a103 103 0 0 1 7-9.87 87 87 0 0 1 8-8.6 88.26 88.26 0 0 1 9.12-7.38 90.14 90.14 0 0 1 10.21-6.17c7.26-3.83 15.24-6.78 24.29-9.72a40.78 40.78 0 0 0-13.91-3.38z"/><path class="cls-9" d="M224.32 179.29a35.76 35.76 0 0 1-1.64-7.47c-.19-1.28-.22-2.54-.32-3.82s0-2.55 0-3.84a60.62 60.62 0 0 1 2.46-15.27 62 62 0 0 1 6.43-14.44c.72-1.12 1.48-2.22 2.23-3.33.39-.55.75-1.11 1.16-1.64l1.29-1.56 2.61-3.07c.94-1 1.93-1.88 2.89-2.82a59.35 59.35 0 0 1 28-14.84 55.12 55.12 0 0 1 15.54-1.12 43.7 43.7 0 0 1 14.87 3.56l-7 2.37c-1.14.44-2.26.77-3.37 1.22-.55.22-1.1.39-1.65.6l-1.62.64c-2.16.82-4.25 1.75-6.3 2.64-1 .5-2 1-3 1.43l-3.07 1.47a93.35 93.35 0 0 0-20.65 14.6l-2.27 2.13c-.71.76-1.41 1.53-2.14 2.29l-1.09 1.12c-.34.4-.66.81-1 1.21-.68.8-1.35 1.61-2.05 2.4l-1.93 2.53-1 1.27c-.32.43-.6.88-.91 1.32l-1.86 2.66c-.58.92-1.16 1.85-1.76 2.77-2.32 3.74-4.56 7.67-6.66 11.83s-4.08 8.5-6.19 13.16z"/><path class="cls-9" d="M162.16 104.8a32.85 32.85 0 0 1 7.19-.66c1.21 0 2.39.1 3.6.16s2.38.28 3.59.43a55.32 55.32 0 0 1 14 4.2 57.55 57.55 0 0 1 12.66 7.86c.95.83 1.88 1.68 2.81 2.53.46.43.94.85 1.38 1.3l1.28 1.41 2.52 2.85c.77 1 1.5 2.05 2.24 3.07a55.12 55.12 0 0 1 10 28.13 51.41 51.41 0 0 1-1.19 14.63 40.18 40.18 0 0 1-5.55 13.3l-1.41-6.86c-.51-2.22-.95-4.37-1.52-6.47s-1.11-4.15-1.69-6.15c-.34-1-.64-2-1-3l-1-2.89a90.13 90.13 0 0 0-10.79-20.84l-1.65-2.38c-.61-.75-1.22-1.49-1.82-2.26l-.88-1.15c-.31-.37-.66-.72-1-1.09-.65-.73-1.3-1.45-1.93-2.21l-2-2.12-1-1.08c-.35-.35-.72-.68-1.09-1l-2.18-2.09c-.77-.66-1.54-1.32-2.3-2-3.11-2.67-6.41-5.31-9.94-7.87s-7.32-5.05-11.33-7.75z"/><path class="cls-9" d="M219.35 180.93a208.59 208.59 0 0 0 2.29-34 122.5 122.5 0 0 0-4.8-32 109.2 109.2 0 0 0-13.75-29.06A130.12 130.12 0 0 0 193 72.74c-1.86-2.12-3.79-4.2-5.79-6.27s-4.08-4.09-6.19-6.18a71.13 71.13 0 0 1 30 19.24 79.65 79.65 0 0 1 18.21 31.74 86 86 0 0 1 2.53 36.34 89 89 0 0 1-4.37 17.45 79.27 79.27 0 0 1-3.51 8.2 55.64 55.64 0 0 1-4.53 7.67z"/><path d="M220.2 204.9A43.64 43.64 0 0 0 263 170a7.38 7.38 0 0 0-7.29-8.78h-70.98a7.38 7.38 0 0 0-7.29 8.78 43.64 43.64 0 0 0 42.76 34.9z" style="fill:#bf2726"/><ellipse class="cls-16" cx="237.03" cy="181.54" rx="19.98" ry="10.85" transform="rotate(-33.9 236.543 180.683)"/><ellipse class="cls-16" cx="241.21" cy="178.73" rx="11.72" ry="6.37" transform="rotate(-16.75 241.245 178.752)"/><rect class="cls-35" x="91.54" y="267.47" width="91.88" height="67.18" rx="14.97" transform="rotate(-27.56 137.495 301.078)"/><rect x="97.96" y="265.38" width="82.57" height="58.2" rx="13.2" transform="rotate(-27.56 139.257 294.508)" style="stroke-width:3.23px;fill-opacity:.54;stroke:#fff;stroke-miterlimit:10;fill:#fff"/><path d="m134.29 301.81-38.37-1.11c-3.75-7.19-2.08-15.47 3.73-18.51L151.81 255c5.81-3 13.56.34 17.31 7.53l-21 32.11a16 16 0 0 1-13.83 7.17z" style="stroke-width:3.23px;stroke:#fff;stroke-miterlimit:10;fill:none"/><path class="cls-26" d="M226.09 579.85c8 16.17 4.62 27 5.25 34.86v.33a12.24 12.24 0 0 0 24.43.19c.08-2.19 1.6-11.37 6.24-11.22 2.7.09 4 3.67 4.52 7.24 3.05-14.47-1.46-29.26-11.72-35.62.05-.02-45.61-29.86-28.72 4.22z"/><path d="M226.09 579.85c8 16.17 4.62 27 5.25 34.86v.33a12.24 12.24 0 0 0 24.43.19c.08-2.19 1.6-11.37 6.24-11.22 2.7.09 4 3.67 4.52 7.24 3.05-14.47-1.46-29.26-11.72-35.62.05-.02-45.61-29.86-28.72 4.22z" style="fill:#ce921b;opacity:.5"/><path class="cls-26" d="M222.34 579.49c-18.81-4.83-30.74-16.37-41.49-41.12a96.33 96.33 0 0 1-5.57-57.44c5.26-23.87 35.46-31.05 35.13 13.31-.18 23.44-1.25 45.17 11.22 58.29 11.15 11.72 32.23 12.2 34.47 20.07 1.41 4.94-14.41 11.87-33.76 6.89z"/><path class="cls-27" d="M198.94 541c-4.94-9.76-5.74-23.93-2.88-34.28 3.79-13.74 14.3-16.23 14.26-1.91-.06 19.28.75 36.57 11.31 47.68 2.91 3.06 7.55 5.82 11.26 7.7 10.58 5.36 5.74 9.3-3.58 6.61a50.91 50.91 0 0 1-30.37-25.8z"/><path class="cls-26" d="M266.63 617.15c.64 4.73 2 7.69 5.15 10.57a14.41 14.41 0 0 0 9.29 3.3 14.89 14.89 0 0 0 14.55-11.74c.12-.55.35-2.45.44-3.32.05-.48.4-3.45.66-4.59 3-13 13.22-18.54 14.39-19.31-12.46.42-41.31 5.23-43.84 5.72.52 4.29-.13 7.3-.71 12.74a43.29 43.29 0 0 0 .07 6.63z"/><path class="cls-42" d="M275.18 450.89c9 .83 18.69 7.21 14.26 11.73-2.92 3-5.56.06-14.54-.78s-16.67 2.88-16.28-1.26 7.58-10.53 16.56-9.69zM261 477.45c12.71 2.64 25.56 13.33 18.5 19.07-4.65 3.77-7.95-.81-20.66-3.46s-24.3 1.44-23.08-4.42 12.55-13.84 25.24-11.19zM249.71 511.55c10.58 2.58 21 11.91 15 16.52-4 3-6.64-.9-17.22-3.49s-20.42.51-19.22-4.37 10.86-11.21 21.44-8.66zM240 541.89c6.09 1.89 11.56 8.77 7.54 12.18-2.64 2.25-3.89-.65-10-2.55s-12.23.41-11.11-3.2 7.43-8.32 13.57-6.43z"/><path class="cls-27" d="M352.51 461.31a14.81 14.81 0 0 1-14.81 14.81c-8.17 0-12.54-6.36-12.54-14.54s3.73-16.09 8.51-16c2.82 0 3.41 5.24 4.65 9.06.86 2.63.29 5 1.5 5.95 3.18 2.55 12.69-3.7 12.69.72z"/><path class="cls-26" d="M318.75 489.83c.37-3.42 3.29-27.17 21.3-36.25 2.67-1.34 13.44-6.76 22.24-1.84 3.44 1.92 7.8 6.09 7.48 10.69-.31 4.44-2.35 9.89-10.67 14.66-6.34 3.64-12.84 3.84-19.84 5.4-6.22 1.38-9.26 6.55-6.9 12.6 0 0-11.72-3.83-13.61-5.26z"/></g></g></svg>