<svg id="Шар_1" data-name="Шар 1" xmlns="http://www.w3.org/2000/svg" xmlns:xlink="http://www.w3.org/1999/xlink" viewBox="0 0 2000 2000"><defs><style>.cls-1{fill:url(#Градієнт_без_назви_86);}.cls-2{fill:url(#Градієнт_без_назви_86-2);}.cls-3{fill:url(#Градієнт_без_назви_84);}.cls-4{fill:#055955;}.cls-5{fill:#0d7f7c;}.cls-6{fill:#0e9992;}.cls-7{fill:#13bfbb;}.cls-8{fill:#0a6666;}.cls-9{fill:#15bcb8;}</style><linearGradient id="Градієнт_без_назви_86" x1="1427.89" y1="534.65" x2="1397.24" y2="-108.29" gradientUnits="userSpaceOnUse"><stop offset="0.2" stop-color="#ff7b16"/><stop offset="0.34" stop-color="#ff831b"/><stop offset="0.55" stop-color="#ff9a28"/><stop offset="0.81" stop-color="#ffbe3e"/><stop offset="0.94" stop-color="#ffd34a"/></linearGradient><linearGradient id="Градієнт_без_назви_86-2" x1="287.89" y1="534.67" x2="257.25" y2="-108.28" gradientTransform="matrix(-1, 0, 0, 1, 860.01, 0)" xlink:href="#Градієнт_без_назви_86"/><linearGradient id="Градієнт_без_назви_84" x1="1025.55" y1="1798.52" x2="955.71" y2="333.12" gradientUnits="userSpaceOnUse"><stop offset="0.06" stop-color="#ffd34a"/><stop offset="0.19" stop-color="#ffbe3e"/><stop offset="0.45" stop-color="#ff9a28"/><stop offset="0.66" stop-color="#ff831b"/><stop offset="0.8" stop-color="#ff7b16"/></linearGradient></defs><path class="cls-1" d="M1731,7.94c-4.29-.09-8.58.16-12.89.16-338.84,0-613.52,274.68-613.52,613.52,0,4.31-.25,8.6-.16,12.89Z"/><path class="cls-2" d="M269,8c4.29-.09,8.58.16,12.89.16,338.84,0,613.52,274.68,613.52,613.52,0,4.31.25,8.6.16,12.89Z"/><path class="cls-3" d="M1000,738.94h0A104.44,104.44,0,0,1,895.57,634.51V1887.65A104.43,104.43,0,0,0,1000,1992.08h0a104.43,104.43,0,0,0,104.43-104.43V634.51A104.44,104.44,0,0,1,1000,738.94Z"/><polygon class="cls-4" points="1104.43 634.51 1417.71 321.22 1417.71 947.79 1104.43 1261.08 1104.43 634.51"/><polygon class="cls-5" points="1417.71 321.22 1731 7.94 1731 634.51 1417.71 947.79 1417.71 321.22"/><polygon class="cls-6" points="1104.43 1261.08 1417.71 947.79 1417.71 1574.37 1104.43 1887.65 1104.43 1261.08"/><polygon class="cls-7" points="1417.71 947.79 1731 634.51 1731 1261.08 1417.71 1574.37 1417.71 947.79"/><polygon class="cls-4" points="895.57 634.51 582.29 321.22 582.29 947.79 895.57 1261.08 895.57 634.51"/><polygon class="cls-8" points="582.29 321.22 269 7.94 269 634.51 582.29 947.79 582.29 321.22"/><polygon class="cls-6" points="895.57 1261.08 582.29 947.79 582.29 1574.37 895.57 1887.65 895.57 1261.08"/><polygon class="cls-9" points="582.29 947.79 269 634.51 269 1261.08 582.29 1574.37 582.29 947.79"/></svg>