<?xml version="1.0" standalone="no"?>
<!DOCTYPE svg PUBLIC "-//W3C//DTD SVG 20010904//EN"
 "http://www.w3.org/TR/2001/REC-SVG-20010904/DTD/svg10.dtd">
<svg version="1.0" xmlns="http://www.w3.org/2000/svg"
 width="1667.000000pt" height="1667.000000pt" viewBox="0 0 1667.000000 1667.000000"
 preserveAspectRatio="xMidYMid meet">
<metadata>
Created by potrace 1.14, written by Peter Selinger 2001-2017
</metadata>
<g transform="translate(0.000000,1667.000000) scale(0.100000,-0.100000)"
fill="#000000" stroke="none">
<path d="M0 8335 l0 -8335 8335 0 8335 0 0 8335 0 8335 -8335 0 -8335 0 0
-8335z m10360 7720 c570 -91 990 -518 1092 -1110 30 -175 23 -439 -16 -610
-47 -203 -130 -401 -240 -570 -138 -211 -3918 -5601 -3980 -5674 -90 -107
-217 -218 -376 -329 -211 -147 -382 -220 -600 -258 -74 -13 -134 -15 -270 -11
-257 8 -399 45 -645 167 -211 104 -398 255 -554 445 -32 39 -937 1330 -2012
2870 -2076 2975 -2033 2911 -2112 3140 -174 504 -107 1037 178 1417 250 333
624 518 1046 518 146 0 244 -12 374 -45 340 -86 660 -295 883 -575 42 -53 705
-997 1472 -2098 767 -1100 1398 -2000 1402 -1999 4 1 646 914 1426 2028 780
1114 1441 2055 1470 2091 85 108 256 263 376 343 219 146 455 235 711 268 78
10 289 6 375 -8z m4591 -5705 c265 -54 484 -176 695 -385 275 -274 435 -621
474 -1030 14 -152 14 -6847 0 -7000 -28 -298 -137 -596 -303 -832 -80 -113
-247 -281 -362 -362 -345 -243 -773 -307 -1171 -175 -339 112 -656 398 -834
755 -62 123 -113 271 -147 423 l-27 121 -3 1551 -4 1551 -742 6 c-408 4 -939
7 -1179 7 l-437 0 -4 -1162 c-3 -1145 -3 -1164 -24 -1248 -126 -504 -486 -858
-983 -966 -118 -26 -371 -26 -490 -1 -260 56 -456 161 -641 346 -193 193 -301
395 -356 666 -17 86 -18 222 -18 2815 0 2593 1 2729 18 2815 109 541 511 933
1045 1021 195 32 458 5 642 -66 396 -153 676 -479 783 -910 21 -83 21 -105 24
-1202 l4 -1118 1179 0 1180 0 3 1513 c3 1661 -1 1552 63 1775 174 606 649
1040 1217 1112 101 12 282 3 398 -20z"/>
</g>
</svg>
