<svg id="Шар_1" data-name="Шар 1" xmlns="http://www.w3.org/2000/svg" viewBox="0 0 1877 335"><defs><style>.cls-1{fill:#035959;}</style></defs><path class="cls-1" d="M547.85,335.19c-23.31,0-43.47-7.93-59.92-23.56s-25-36.05-25-60.42V-.27h30V114.48h62.21v28.2H493V251.21c0,16.32,5.21,29.4,15.94,40S532.4,307,547.85,307h7.78v28.2Z"/><path class="cls-1" d="M1595.61,334.24c-23.31,0-43.47-7.93-59.92-23.56s-25-36.06-25-60.42V-1.22h30V113.53h62.21v28.2h-62.21V250.26c0,16.32,5.21,29.4,15.94,40S1580.16,306,1595.61,306h7.79v28.2Z"/><path class="cls-1" d="M798.29,335.6V209.69c0-19.1-6.51-35.1-19.9-48.9s-28.9-20.41-47.61-20.41-34.85,6.79-49.1,20.77S660.57,191,660.57,209.69V335.6h-30V-.53h30V139.33c16.82-18,40.33-27.14,70.21-27.14,27.28,0,50.6,9.57,69.33,28.45s28.18,42.1,28.18,69.05V335.6Z"/><path class="cls-1" d="M1847,335.11V209.2c0-19.11-6.51-35.1-19.89-48.91s-28.9-20.4-47.61-20.4-34.86,6.79-49.1,20.77-21.11,29.8-21.11,48.54V335.11h-30V-1h30V138.84c16.81-18,40.33-27.14,70.21-27.14,27.27,0,50.59,9.57,69.32,28.45s28.18,42.1,28.18,69V335.11Z"/><path class="cls-1" d="M1428,334.77c-23.31,0-43.47-7.92-59.92-23.55s-25-36.06-25-60.42V-.69h30V250.8c0,16.32,5.22,29.4,16,40s23.49,15.79,38.94,15.79h7.78v28.19Z"/><path class="cls-1" d="M388.68,220.58V192.39H326V140.92l63.13-.56v-27.8H326l-30,.16V250.09c0,24.51,8.41,45,25,60.78s36.61,23.7,59.92,23.7h7.78V306.21H380.9c-15.45,0-28.19-5.2-38.94-15.89S326,266.51,326,250.09V220.58Z"/><path class="cls-1" d="M995.15,220.58V192.39H932.48V140.92l63.13-.56v-27.8H932.48l-30,.16V250.09c0,24.51,8.4,45,25,60.78s36.61,23.7,59.92,23.7h7.78V306.21h-7.78c-15.45,0-28.19-5.2-38.94-15.89s-15.95-23.81-15.95-40.23V220.58Z"/><path class="cls-1" d="M191.86,112.56Q151.57,206,111.26,299.47c-26-62.3-50.36-124.6-77.23-186.91H-.08l96,222.55h30.47l96-222.55Z"/><path class="cls-1" d="M1239.5,139.93c-18.72-18.88-42-28.45-69.32-28.45-.36,0-.69,0-1,0s-.68,0-1,0c-27.28,0-50.6,9.57-69.33,28.45s-28.18,42.1-28.18,69V334.89h30V209c0-19.1,6.51-35.1,19.89-48.9s28.91-20.41,47.62-20.41c.35,0,.69,0,1,0s.69,0,1,0c18.71,0,34.28,6.68,47.61,20.41s19.9,29.8,19.9,48.9v30.75h-89.75v27.2h89.75v68h30V209C1267.68,182,1258.2,158.8,1239.5,139.93Z"/></svg>