<svg id="Шар_1" data-name="Шар 1" xmlns="http://www.w3.org/2000/svg" xmlns:xlink="http://www.w3.org/1999/xlink" viewBox="0 0 1233 335"><defs><style>.cls-1{fill:#035959;}.cls-2{fill:url(#Градієнт_без_назви_86);}.cls-3{fill:url(#Градієнт_без_назви_86-2);}.cls-4{fill:url(#Градієнт_без_назви_84);}.cls-5{fill:#055955;}.cls-6{fill:#0d7f7c;}.cls-7{fill:#13bfbb;}.cls-8{fill:#15bcb8;}</style><linearGradient id="Градієнт_без_назви_86" x1="194.41" y1="90.34" x2="189.3" y2="-16.97" gradientUnits="userSpaceOnUse"><stop offset="0.2" stop-color="#ff7b16"/><stop offset="0.34" stop-color="#ff831b"/><stop offset="0.55" stop-color="#ff9a28"/><stop offset="0.81" stop-color="#ffbe3e"/><stop offset="0.94" stop-color="#ffd34a"/></linearGradient><linearGradient id="Градієнт_без_назви_86-2" x1="-3629.58" y1="90.34" x2="-3634.7" y2="-16.97" gradientTransform="matrix(-1, 0, 0, 1, -3577.99, 0)" xlink:href="#Градієнт_без_назви_86"/><linearGradient id="Градієнт_без_назви_84" x1="127.26" y1="301.27" x2="115.61" y2="56.7" gradientUnits="userSpaceOnUse"><stop offset="0.06" stop-color="#ffd34a"/><stop offset="0.19" stop-color="#ffbe3e"/><stop offset="0.45" stop-color="#ff9a28"/><stop offset="0.66" stop-color="#ff831b"/><stop offset="0.8" stop-color="#ff7b16"/></linearGradient></defs><path class="cls-1" d="M620.44,210.61a38.81,38.81,0,0,1-27.61-10.85c-7.63-7.25-11.51-16.62-11.51-27.85V56h13.83V108.9h28.67v13H595.15v50c0,7.52,2.4,13.55,7.35,18.43a24.33,24.33,0,0,0,17.94,7.28H624v13Z"/><path class="cls-1" d="M1103.32,210.17a38.83,38.83,0,0,1-27.62-10.85c-7.63-7.25-11.5-16.62-11.5-27.85V55.57H1078v52.89h28.68v13H1078v50c0,7.52,2.41,13.55,7.35,18.43a24.37,24.37,0,0,0,18,7.28h3.59v13Z"/><path class="cls-1" d="M735.86,210.8v-58a31,31,0,0,0-9.17-22.54,29.23,29.23,0,0,0-21.94-9.41c-8.66,0-16.06,3.13-22.63,9.57s-9.73,13.74-9.73,22.38v58H658.57V55.89h13.82v64.46c7.75-8.31,18.59-12.51,32.36-12.51,12.57,0,23.32,4.41,32,13.11a43.71,43.71,0,0,1,13,31.83v58Z"/><path class="cls-1" d="M1219.17,210.58v-58A31,31,0,0,0,1210,130a29.24,29.24,0,0,0-22-9.4c-8.66,0-16.06,3.13-22.62,9.57s-9.73,13.74-9.73,22.37v58h-13.83V55.67h13.83v64.45c7.75-8.31,18.58-12.51,32.35-12.51A44.58,44.58,0,0,1,1233,152.55v58Z"/><path class="cls-1" d="M1026.07,210.42a38.81,38.81,0,0,1-27.62-10.85C990.82,192.32,987,183,987,171.72V55.82h13.82v115.9c0,7.52,2.41,13.55,7.35,18.43a24.37,24.37,0,0,0,17.95,7.28h3.58v13Z"/><path class="cls-1" d="M547.09,157.79v-13H518.21V121.08l29.09-.25V108H518.21l-13.83.07V171.4c0,11.29,3.87,20.72,11.51,28a38.7,38.7,0,0,0,27.61,10.92h3.59V197.26H543.5a24.33,24.33,0,0,1-18-7.32c-4.94-4.91-7.34-11-7.34-18.54V157.79Z"/><path class="cls-1" d="M826.59,157.79v-13H797.71V121.08l29.09-.25V108H797.71l-13.83.07V171.4c0,11.29,3.87,20.72,11.51,28A38.7,38.7,0,0,0,823,210.33h3.59V197.26H823a24.33,24.33,0,0,1-18-7.32c-4.94-4.91-7.34-11-7.34-18.54V157.79Z"/><path class="cls-1" d="M456.38,108l-37.14,86.14c-12-28.71-23.22-57.42-35.6-86.14H367.92l44.23,102.57h14L470.42,108Z"/><path class="cls-1" d="M939.2,120.63c-8.63-8.71-19.38-13.12-32-13.12l-.48,0-.48,0c-12.57,0-23.32,4.41-31.95,13.12a43.68,43.68,0,0,0-13,31.82v58h13.82v-58a31,31,0,0,1,9.17-22.54,29.22,29.22,0,0,1,21.94-9.4c.16,0,.32,0,.48,0s.32,0,.48,0a29.22,29.22,0,0,1,21.94,9.4,31,31,0,0,1,9.17,22.54v14.17H897v12.53h41.36v31.32h13.83v-58A43.69,43.69,0,0,0,939.2,120.63Z"/><path class="cls-2" d="M245,2.43c-.72,0-1.43,0-2.15,0A102.39,102.39,0,0,0,140.46,104.85c0,.72-.05,1.44,0,2.15Z"/><path class="cls-3" d="M1,2.43c.72,0,1.43,0,2.15,0A102.39,102.39,0,0,1,105.54,104.85c0,.72,0,1.44,0,2.15Z"/><path class="cls-4" d="M123,124.43h0A17.43,17.43,0,0,1,105.57,107V316.14A17.43,17.43,0,0,0,123,333.57h0a17.43,17.43,0,0,0,17.43-17.43V107A17.43,17.43,0,0,1,123,124.43Z"/><polygon class="cls-5" points="140.43 107 192.71 54.72 192.71 159.29 140.43 211.57 140.43 107"/><polygon class="cls-6" points="192.71 54.72 245 2.43 245 107 192.71 159.29 192.71 54.72"/><polygon class="cls-6" points="140.43 211.57 192.71 159.29 192.71 263.86 140.43 316.14 140.43 211.57"/><polygon class="cls-7" points="192.71 159.29 245 107 245 211.57 192.71 263.86 192.71 159.29"/><polygon class="cls-5" points="105.57 107 53.29 54.72 53.29 159.29 105.57 211.57 105.57 107"/><polygon class="cls-6" points="53.29 54.72 1 2.43 1 107 53.29 159.29 53.29 54.72"/><polygon class="cls-6" points="105.57 211.57 53.29 159.29 53.29 263.86 105.57 316.14 105.57 211.57"/><polygon class="cls-8" points="53.29 159.29 1 107 1 211.57 53.29 263.86 53.29 159.29"/></svg>