<?xml version="1.0" standalone="no"?>
<!DOCTYPE svg PUBLIC "-//W3C//DTD SVG 20010904//EN"
 "http://www.w3.org/TR/2001/REC-SVG-20010904/DTD/svg10.dtd">
<svg version="1.0" xmlns="http://www.w3.org/2000/svg"
 width="700.000000pt" height="700.000000pt" viewBox="0 0 700.000000 700.000000"
 preserveAspectRatio="xMidYMid meet">
<metadata>
Created by potrace 1.14, written by Peter Selinger 2001-2017
</metadata>
<g transform="translate(0.000000,700.000000) scale(0.100000,-0.100000)"
fill="#000000" stroke="none">
<path d="M941 4778 l0 -2193 1097 -1096 c966 -966 1096 -1101 1100 -1130 15
-142 105 -259 239 -309 80 -30 194 -25 275 12 109 50 192 160 205 272 5 43 14
58 54 101 26 27 520 523 1098 1100 l1050 1050 1 2194 0 2194 -143 -6 c-174 -8
-277 -22 -434 -62 -703 -178 -1281 -717 -1507 -1406 -24 -74 -47 -151 -50
-173 -4 -21 -8 -42 -11 -46 -2 -4 -7 -26 -10 -49 -3 -24 -7 -52 -10 -64 -15
-67 -24 -180 -29 -352 -2 -55 -6 -107 -9 -115 -2 -8 -12 -36 -22 -63 -33 -93
-156 -196 -257 -215 -193 -35 -367 71 -433 263 -4 11 -8 70 -10 130 -5 131
-15 286 -19 294 -2 3 -7 29 -10 56 -4 28 -9 57 -11 65 -2 8 -7 31 -10 50 -12
70 -72 266 -105 345 -69 164 -214 418 -289 507 -6 7 -28 33 -48 58 -395 477
-992 769 -1595 779 l-107 2 0 -2193z"/>
</g>
</svg>
