<svg id="visual" viewBox="0 0 900 600" width="900" height="600" xmlns="http://www.w3.org/2000/svg" xmlns:xlink="http://www.w3.org/1999/xlink" version="1.1"><g transform="translate(448.8160071366244 258.0946406258016)"><path d="M146.5 -231.1C182.1 -205.2 197.6 -151.3 231.8 -99.2C265.9 -47.1 318.5 3.1 312.5 44.9C306.4 86.7 241.6 119.9 196.8 168.9C151.9 217.9 126.9 282.6 80.8 313.7C34.7 344.8 -32.5 342.2 -83.5 313.8C-134.5 285.4 -169.3 231.1 -211.6 183C-253.8 134.8 -303.6 92.8 -309.9 44.9C-316.2 -3 -279.1 -56.7 -242.5 -100C-206 -143.2 -170 -175.9 -129.7 -199.7C-89.4 -223.4 -44.7 -238.2 5.4 -246.6C55.5 -255 111 -257.1 146.5 -231.1" fill="#009473"></path></g></svg>