<svg xmlns="http://www.w3.org/2000/svg" viewBox="0 0 1326.22 294.21"><defs><style>.cls-1{fill:currentColor;}</style></defs><g id="Шар_2" data-name="Шар 2"><g id="Шар_1-2" data-name="Шар 1"><path class="cls-1" d="M124.1,18.51c-3.4,10.5-10.9,33.4-16.7,50.8s-10.4,32.3-10.3,33c0,1.8,32.1,51.1,33.4,51.6.8.2,23.9-34,32.2-47.7l2.2-3.7-6.8-20.9c-3.8-11.5-11.2-34.4-16.6-50.9S131.4.41,131.1,0,127.6,7.91,124.1,18.51Z"/><path class="cls-1" d="M0,88.81c0,.3,5.1,8.5,11.3,18.2s20.8,32.5,32.4,50.7c52.5,82.6,65.9,103.6,71.7,112.5,3.4,5.2,8.2,12.8,10.6,16.7s4.7,7.3,5,7.3,4.6-6.7,9.6-14.8,19.2-30.7,31.4-50.2,27.1-43.2,33-52.5,20.6-32.9,32.8-52.2S260,89,260,88.71s-7.8-.5-17.3-.5c-15.3,0-17.6.2-18.9,1.7-.8,1-15.4,23.6-32.3,50.3s-31.6,49.6-32.6,51-7.2,11.3-13.9,22-12.8,20.1-13.6,20.9c-1.4,1.5-1.3,1.6-40.6-58.9-10.1-15.7-22.7-35-28-43s-13.8-21.1-19.1-29.3l-9.6-14.7H17C7.7,88.21,0,88.51,0,88.81Z"/><path class="cls-1" d="M951.7,90.91c-.3.4-4.4,10.5-9.2,22.3-10.1,24.9-19.2,47.2-26.5,65-7.5,18.5-9.8,24.3-10.2,26-.2,1.2,1.1,1.5,6.7,1.6,9.4.2,10.2-.1,11.6-4.4.6-2,2.5-7.4,4.1-12l3-8.2,21.6,1h21.5l3.8,10.8c2.1,6.3,4,11.7,4.3,12,1.1,1,16.6.8,16.6-.3,0-.9-10.8-29.8-35-93.5-6.3-16.4-8.2-20.6-9.8-20.8C953.1,90.21,952,90.41,951.7,90.91Zm9.7,53.9c4.2,12.7,7.6,23.6,7.6,24.2,0,.9-4.5,1.2-16.5,1.2-9.1,0-16.5-.4-16.5-.8,0-1,5.4-16.8,10.9-32.2,5.2-14.1,6.1-16.4,6.5-15.9C953.6,121.51,957.2,132.11,961.4,144.81Z"/><path class="cls-1" d="M317,93c0,.5,7.9,21.9,17.6,47.8s19.1,51.3,21.1,56.7l3.6,9.8,4-.3c4.6-.3,3.1,2.7,16.2-33.8,3.6-10.2,7.3-20.1,8-22,1.2-3,15.9-43.5,20.1-55.3l1.3-3.8-8.6.3-8.7.3-1.7,5.5c-1,3-6.3,18.8-11.9,35s-10.8,31.5-11.6,34c-2.3,7.4-3,7.9-4.8,3.5a25.33,25.33,0,0,1-1.6-4.3c0-.4-5.9-17.2-13.1-37.4l-13.2-36.8h-8.3C320.8,92.21,317,92.61,317,93Z"/><path class="cls-1" d="M447,148.71c0,31.1.3,56.5.8,56.5,2,0,64.9.1,66,0,.8,0,1.2-2.1,1.2-7v-7H462l1-20.3v-20.7h37v-13H462v-31l23.8-.1c13-.1,24.8-.2,26.2-.2,2.4-.2,2.5-.5,2.8-7l.3-6.7H447Z"/><path class="cls-1" d="M547,98.66c0,5.14.3,6.55,1.71,7.15,1,.3,9.27.5,18.43.4H583l1,49.6.5,50.4H591a60.28,60.28,0,0,0,7.8-.3c.9-.3,1.2-11.2,1.2-50.1v-49.6h38.89l.31-7,.31-7H547Z"/><path class="cls-1" d="M676,148.71v56.5l2.7.2c1.45,0,4.54.1,7,.1l4.34.1,1-27.7v-27.7h51v27.5c0,15.1.3,27.5.8,27.6a49.52,49.52,0,0,0,11.5.2l3.7-.6V92.21H742v45H691v-45H676Z"/><path class="cls-1" d="M806,148.71c0,37,.3,56.5,1,56.5s33.8,1,33.8,1h32.7l.3-7.9.3-7.1H821l1-20.3v-20.7h37v-14l-18.7,1H821v-32l26.8,1H874v-14H806Z"/><path class="cls-1" d="M1036,148.71v56.5l32.5.1c17.9.1,33.1.2,33.8.3s1.3-2.1,1.5-7.2l.3-7.2H1052v-99h-16Z"/><path class="cls-1" d="M1117,98.67l.29,6.54,16.69,1,18,.2.3,49.3c.1,28.86.6,49.6,1.1,50s4,.5,7.8.5l6.8-.1.31-48.8c.2-39.55.51-50.79,1.53-50.89l19.11-.21,17.88-.2.31-7,.31-6.85h-90.71Z"/><path class="cls-1" d="M1244,149v56.24l5.5.1c3,.1,6.2.1,7,.1a18.52,18.52,0,0,0,2.5-.1c.6-.1,1-10,1-27.6v-27.5l25.3,1,25.7.3.29,26.41c.1,14.48.59,26.61,1.08,26.9s3.72.49,7.14.39H1325l1-56.3.22-56.7H1310l1,22.2v21.8l-25.7,1-25.3.2V92.21h-16Z"/></g></g></svg>